<svg width="34" height="40" viewBox="0 0 34 40" fill="none" xmlns="http://www.w3.org/2000/svg">
<g clip-path="url(#clip0_235_646)">
<path d="M9.51373 40C9.14328 39.9995 8.77885 39.906 8.45365 39.7279C8.12845 39.5499 7.85281 39.2931 7.65186 38.9808C7.45091 38.6685 7.33104 38.3107 7.30317 37.94C7.2753 37.5694 7.34031 37.1976 7.49228 36.8586L23.4638 1.31128C23.5836 1.04479 23.7545 0.804581 23.9667 0.604366C24.179 0.404151 24.4285 0.247851 24.7009 0.144389C24.9734 0.0409263 25.2635 -0.00767123 25.5547 0.00137022C25.8459 0.0104117 26.1324 0.0769153 26.398 0.197084C26.6635 0.317253 26.9029 0.488733 27.1024 0.701734C27.302 0.914735 27.4577 1.16509 27.5608 1.43849C27.6639 1.7119 27.7124 2.00301 27.7034 2.29519C27.6944 2.58738 27.6281 2.87493 27.5083 3.14141L11.5368 38.6911C11.3609 39.0815 11.0764 39.4127 10.7176 39.6449C10.3587 39.877 9.9407 40.0003 9.51373 40V40Z" fill="#B0D4D6"/>
<path d="M31.7821 15.9629H31.7651L2.7776 15.7525C2.18928 15.7503 1.6259 15.5137 1.21141 15.0948C0.796915 14.6758 0.565258 14.1088 0.567397 13.5184C0.569537 12.9281 0.805298 12.3627 1.22282 11.9468C1.64034 11.5309 2.20541 11.2984 2.79373 11.3006H2.80986L31.7974 11.511C32.3857 11.513 32.9491 11.7495 33.3637 12.1684C33.7783 12.5873 34.01 13.1543 34.008 13.7446C34.006 14.335 33.7703 14.9004 33.3529 15.3164C32.9354 15.7324 32.3704 15.965 31.7821 15.9629V15.9629Z" fill="#B0D4D6"/>
<path d="M31.2055 28.8759H31.1893L2.20183 28.6655C1.61351 28.6634 1.05009 28.4269 0.635522 28.008C0.220953 27.5892 -0.0108082 27.0222 -0.00877581 26.4318C-0.00674343 25.8415 0.228916 25.2761 0.646359 24.8601C1.0638 24.4441 1.62883 24.2115 2.21716 24.2135H2.2341L31.2208 24.4232C31.8091 24.4252 32.3725 24.6617 32.7871 25.0806C33.2017 25.4995 33.4334 26.0665 33.4314 26.6568C33.4294 27.2472 33.1937 27.8126 32.7763 28.2286C32.3588 28.6446 31.7938 28.8771 31.2055 28.8751V28.8759Z" fill="#B0D4D6"/>
</g>
<defs>
<clipPath id="clip0_235_646">
<rect width="34" height="40" fill="white"/>
</clipPath>
</defs>
</svg>
