<svg width="52" height="62" viewBox="0 0 52 62" fill="none" xmlns="http://www.w3.org/2000/svg">
<path d="M46.7998 1.29175H5.1998C3.04589 1.29175 1.2998 3.02664 1.2998 5.16675V56.8334C1.2998 58.9735 3.04589 60.7084 5.1998 60.7084H46.7998C48.9537 60.7084 50.6998 58.9735 50.6998 56.8334V5.16675C50.6998 3.02664 48.9537 1.29175 46.7998 1.29175Z" stroke="#1E0F00" stroke-width="2" stroke-linejoin="round"/>
<path d="M44.1998 6.45825V54.2499H7.7998V6.45825" stroke="#1E0F00" stroke-width="2" stroke-linejoin="round"/>
<path d="M14.2998 1.29175H37.6998V6.45841C37.6998 7.14356 37.4259 7.80064 36.9383 8.28511C36.4507 8.76958 35.7894 9.04175 35.0998 9.04175H16.8998C16.2102 9.04175 15.5489 8.76958 15.0613 8.28511C14.5737 7.80064 14.2998 7.14356 14.2998 6.45841V1.29175Z" stroke="#1E0F00" stroke-width="2" stroke-linejoin="round"/>
<path d="M19.5 16.7917H32.5" stroke="#1E0F00" stroke-width="2" stroke-linejoin="round"/>
<path d="M31.2002 23.25H39.0002" stroke="#1E0F00" stroke-width="2" stroke-linejoin="round"/>
<path d="M13 23.25H28.6" stroke="#1E0F00" stroke-width="2" stroke-linejoin="round"/>
<path d="M23.4004 29.7083H33.8004" stroke="#1E0F00" stroke-width="2" stroke-linejoin="round"/>
<path d="M13 29.7083H20.8" stroke="#1E0F00" stroke-width="2" stroke-linejoin="round"/>
<path d="M28.5996 36.1667H38.9996" stroke="#1E0F00" stroke-width="2" stroke-linejoin="round"/>
<path d="M13 36.1667H26" stroke="#1E0F00" stroke-width="2" stroke-linejoin="round"/>
<path d="M13 42.625H31.2" stroke="#1E0F00" stroke-width="2" stroke-linejoin="round"/>
</svg>
