<svg width="61" height="61" viewBox="0 0 61 61" fill="none" xmlns="http://www.w3.org/2000/svg">
<path d="M59.7288 6.35425H1.27051V41.9376H59.7288V6.35425Z" stroke="#1E0F00" stroke-width="2" stroke-linejoin="round"/>
<path d="M10.167 47.0208H50.8337" stroke="#1E0F00" stroke-width="2" stroke-linejoin="round"/>
<path d="M44.4795 29.2292H53.3753" stroke="#1E0F00" stroke-width="2" stroke-linejoin="round"/>
<path d="M35.583 29.2292H41.9372" stroke="#1E0F00" stroke-width="2" stroke-linejoin="round"/>
<path d="M35.583 35.5833H45.7497" stroke="#1E0F00" stroke-width="2" stroke-linejoin="round"/>
<path d="M35.583 22.875H49.5622" stroke="#1E0F00" stroke-width="2" stroke-linejoin="round"/>
<path d="M47.0205 16.5208H53.3747" stroke="#1E0F00" stroke-width="2" stroke-linejoin="round"/>
<path d="M35.583 16.5208H44.4788" stroke="#1E0F00" stroke-width="2" stroke-linejoin="round"/>
<path d="M26.6875 59.7292H34.3125" stroke="#1E0F00" stroke-width="2" stroke-linejoin="round"/>
<path d="M40.667 59.7292H48.292" stroke="#1E0F00" stroke-width="2" stroke-linejoin="round"/>
<path d="M12.708 59.7292H20.333" stroke="#1E0F00" stroke-width="2" stroke-linejoin="round"/>
<path d="M30.5 47.0208V59.7291" stroke="#1E0F00" stroke-width="2" stroke-linejoin="round"/>
<path d="M40.667 47.0208L44.4795 59.7291" stroke="#1E0F00" stroke-width="2" stroke-linejoin="round"/>
<path d="M20.333 47.0208L16.5205 59.7291" stroke="#1E0F00" stroke-width="2" stroke-linejoin="round"/>
<path d="M30.5 6.35417V0" stroke="#1E0F00" stroke-width="2" stroke-linejoin="round"/>
<path d="M8.89551 36.8541V24.1458" stroke="#1E0F00" stroke-width="2" stroke-linejoin="round"/>
<path d="M15.25 36.8542V13.9792" stroke="#1E0F00" stroke-width="2" stroke-linejoin="round"/>
<path d="M21.6045 36.8541V20.3333" stroke="#1E0F00" stroke-width="2" stroke-linejoin="round"/>
<path d="M27.958 36.8542V11.4375" stroke="#1E0F00" stroke-width="2" stroke-linejoin="round"/>
</svg>
