<svg width="226" height="95" viewBox="0 0 226 95" fill="none" xmlns="http://www.w3.org/2000/svg">
<g clip-path="url(#clip0_55_3736)">
<path d="M28.3184 63.7865C28.3184 63.9626 27.9857 64.0604 27.3205 64.08C26.5769 64.0996 26.078 64.3441 25.8236 64.8138C25.5888 65.2834 25.217 66.2813 24.7083 67.8075C23.8278 70.4881 23.0451 72.7676 22.3603 74.646C21.1863 77.8549 20.1199 80.9563 19.1612 83.95C19.0829 84.2043 18.9851 84.3315 18.8677 84.3315C18.7698 84.3315 18.672 84.2337 18.5742 84.038C18.4959 83.8423 18.2415 83.1575 17.8111 81.9835C17.2632 80.4573 16.6664 78.9213 16.0207 77.3756C15.512 76.1624 15.013 74.9102 14.5239 73.6188C13.1542 76.9255 11.7943 80.379 10.4442 83.9793C10.3659 84.2141 10.2681 84.3315 10.1507 84.3315C10.0529 84.3315 9.93548 84.1652 9.79851 83.8326C9.19195 82.3846 6.94178 76.3874 3.04801 65.841C2.77408 65.0975 2.56863 64.6376 2.43166 64.4615C2.2947 64.2659 1.95228 64.1583 1.40441 64.1387C0.465212 64.0996 -0.00438781 63.9626 -0.00438781 63.7278C-0.00438781 63.5517 0.152146 63.4637 0.465212 63.4637C0.602179 63.4637 0.719579 63.4734 0.817412 63.493C1.85445 63.5517 2.96975 63.5811 4.16331 63.5811C4.39811 63.5811 4.79923 63.5713 5.36666 63.5517C5.95366 63.5126 6.70698 63.493 7.62661 63.493H7.94946C8.2821 63.493 8.44841 63.5811 8.44841 63.7572C8.44841 63.9724 8.14513 64.0898 7.53856 64.1093C6.32543 64.1485 5.71886 64.305 5.71886 64.579C5.71886 65.1268 7.519 70.2239 11.1193 79.8703C12.4302 76.5635 13.4086 74.1275 14.0543 72.5622L11.1486 65.0485C10.9921 64.6376 10.8062 64.3735 10.591 64.2561C10.3953 64.1387 10.0235 64.0702 9.47566 64.0506C8.9278 64.0311 8.65386 63.943 8.65386 63.7865C8.65386 63.5713 8.85931 63.4637 9.27021 63.4637C9.58328 63.4637 9.96483 63.4832 10.4149 63.5223C10.8649 63.5615 11.6476 63.5811 12.7629 63.5811H14.9935L18.222 63.6397C18.9459 63.6397 19.8166 63.6006 20.8341 63.5223C20.9515 63.5028 21.0885 63.493 21.245 63.493C21.7146 63.493 21.9494 63.5908 21.9494 63.7865C21.9494 63.9626 21.7831 64.0506 21.4505 64.0506H20.9515C20.071 64.0506 19.4057 64.1681 18.9557 64.4029C18.76 64.5007 18.3981 65.2051 17.8698 66.516C17.635 67.0639 17.2436 67.9933 16.6958 69.3043C16.5784 69.5978 16.4023 70.0381 16.1675 70.6251C16.3044 71.0164 16.7349 72.1023 17.4589 73.8829C18.3981 76.1526 19.1709 78.0995 19.7775 79.7236C20.8732 76.5538 22.1646 72.8067 23.6517 68.4825C24.4344 66.1932 24.8257 64.9214 24.8257 64.667C24.8257 64.2952 24.4833 64.1093 23.7985 64.1093C22.8397 64.1093 22.3603 64.0017 22.3603 63.7865C22.3603 63.5908 22.556 63.493 22.9473 63.493C23.2799 63.493 23.5441 63.5028 23.7398 63.5223C24.1702 63.5615 24.5616 63.5811 24.9138 63.5811L27.2618 63.5517C27.8488 63.5517 28.1716 63.581 28.2303 63.6397C28.289 63.6789 28.3184 63.7278 28.3184 63.7865ZM17.723 64.667C17.723 64.3148 17.1164 64.1387 15.9033 64.1387H15.5511L15.0522 64.1681C14.3478 64.2072 13.9956 64.3344 13.9956 64.5496C13.9956 64.5887 14.5728 66.2812 15.7272 69.6271C16.1772 68.6488 16.7055 67.3574 17.3121 65.753C17.3904 65.5377 17.5078 65.254 17.6643 64.9018C17.7034 64.7453 17.723 64.667 17.723 64.667ZM35.9232 83.7152C35.9232 83.8717 35.8058 83.95 35.571 83.95H35.2775C35.1601 83.8913 33.8296 83.8619 31.2859 83.8619C30.7968 83.8619 30.3076 83.8815 29.8184 83.9206C29.5641 83.9402 29.1727 83.95 28.6444 83.95C28.3901 83.95 28.2629 83.8619 28.2629 83.6858C28.2629 83.5293 28.5172 83.4412 29.026 83.4217C29.8086 83.4021 30.2685 83.314 30.4054 83.1575C30.5424 82.9814 30.6109 82.414 30.6109 81.4552V66.0171C30.6109 65.0583 30.562 64.5203 30.4641 64.4029C30.3467 64.2072 29.8086 64.0898 28.8499 64.0506C28.4781 64.0311 28.2922 63.9528 28.2922 63.8158C28.2922 63.6397 28.4096 63.5517 28.6444 63.5517L32.6067 63.6104C32.9002 63.6104 33.4676 63.6006 34.309 63.5811L35.4243 63.5517C35.7373 63.5517 35.8939 63.6397 35.8939 63.8158C35.8939 63.9724 35.4634 64.0702 34.6025 64.1093C34.1133 64.1289 33.81 64.217 33.6926 64.3735C33.5948 64.53 33.5459 64.9409 33.5459 65.6062V81.2791C33.5459 82.3944 33.5948 83.001 33.6926 83.0988C33.9079 83.314 34.5438 83.4412 35.6004 83.4804C35.8156 83.4804 35.9232 83.5586 35.9232 83.7152ZM54.1335 83.0695C54.1335 83.8913 53.4487 84.3022 52.079 84.3022C50.5528 84.3022 49.3593 83.6662 48.4983 82.3944C48.1266 81.8465 47.882 81.3182 47.7646 80.8095C47.6667 80.3008 47.5102 79.0094 47.295 76.9353C47.1776 75.683 46.7765 74.8025 46.0916 74.2938C45.4068 73.7655 44.2915 73.4818 42.7457 73.4427V82.6879C42.7457 83.0792 43.0588 83.3238 43.6849 83.4217C43.861 83.4412 44.3111 83.4608 45.035 83.4804C45.2894 83.4804 45.4166 83.5586 45.4166 83.7152C45.4166 83.8913 45.2503 83.9793 44.9176 83.9793H44.5654C44.3893 83.9597 43.5382 83.95 42.012 83.95C41.7185 83.95 41.2195 83.9597 40.5151 83.9793C39.8303 83.9793 39.3803 83.9793 39.165 83.9793H38.0204C37.5899 83.9793 37.3747 83.8913 37.3747 83.7152C37.3747 83.5782 37.6584 83.4999 38.2258 83.4804C39.1455 83.4608 39.6444 83.3434 39.7227 83.1282C39.8009 83.0303 39.8401 82.6488 39.8401 81.9835V65.7823C39.8401 64.9996 39.752 64.53 39.5759 64.3735C39.4194 64.217 38.9204 64.1289 38.0791 64.1093C37.5899 64.1093 37.3453 64.0213 37.3453 63.8452C37.3453 63.6495 37.5019 63.5517 37.8149 63.5517C37.8736 63.5517 37.9617 63.5615 38.0791 63.5811L41.9826 63.6691C42.374 63.6691 42.9218 63.6593 43.6262 63.6397C44.4089 63.6006 44.9568 63.5811 45.2698 63.5811C47.0895 63.5811 48.5277 63.992 49.5843 64.8138C50.6604 65.616 51.1985 66.7117 51.1985 68.101C51.1985 69.4706 50.6507 70.6055 49.5549 71.5056C48.4592 72.3861 46.9721 72.9046 45.0937 73.0611C44.9176 73.0807 44.8198 73.11 44.8002 73.1492C44.8002 73.2274 44.8981 73.2666 45.0937 73.2666C47.1482 73.6188 48.557 74.3427 49.3201 75.4385C50.1028 76.5146 50.6213 78.4713 50.8757 81.3085C51.0322 82.9129 51.5801 83.7152 52.5193 83.7152C52.8128 83.7152 52.9595 83.6565 52.9595 83.5391C52.9595 83.5195 52.9497 83.4999 52.9302 83.4804C52.8323 83.2651 52.7834 83.089 52.7834 82.9521C52.7834 82.5412 52.9987 82.3357 53.4291 82.3357C53.8987 82.3357 54.1335 82.5803 54.1335 83.0695ZM48.0581 68.3651C48.0581 65.5671 46.8449 64.1681 44.4187 64.1681C43.773 64.1681 43.3327 64.2561 43.0979 64.4322C42.8631 64.6083 42.7457 64.9214 42.7457 65.3714V72.8263C44.6241 72.8459 45.9742 72.5035 46.796 71.7991C47.6374 71.0947 48.0581 69.95 48.0581 68.3651ZM70.4489 79.1953C70.4489 79.2735 70.4293 79.7529 70.3902 80.6334C70.3511 81.5139 70.3315 82.3553 70.3315 83.1575V84.1261C68.414 84.0282 64.618 83.9793 58.9437 83.9793C58.2589 83.9793 57.5838 83.9891 56.9186 84.0087C56.2533 84.0087 55.8033 84.0087 55.5685 84.0087H55.275C54.9032 84.0087 54.7173 83.9206 54.7173 83.7445C54.7173 83.6271 54.776 83.5586 54.8934 83.5391C54.9521 83.5391 55.3239 83.5097 56.0087 83.451C56.5174 83.4119 56.8207 83.3043 56.9186 83.1282C57.036 82.9521 57.0947 82.4922 57.0947 81.7487V65.254C57.0947 64.6866 57.0066 64.3539 56.8305 64.2561C56.674 64.1387 56.1457 64.08 55.2456 64.08C54.9325 64.08 54.776 63.9919 54.776 63.8158C54.776 63.6397 54.9912 63.5517 55.4217 63.5517L60.4406 63.5811C60.6167 63.5811 61.7222 63.5713 63.7571 63.5517C65.792 63.5517 67.1617 63.5517 67.8661 63.5517C68.4531 63.5517 68.9912 63.5126 69.4804 63.4343C69.5195 64.2757 69.6075 65.4399 69.7445 66.9269L69.8619 68.189C69.8815 68.2868 69.8913 68.414 69.8913 68.5705C69.8913 68.7662 69.8032 68.8641 69.6271 68.8641C69.4119 68.8641 69.2553 68.6195 69.1575 68.1303C68.7857 66.3693 68.1792 65.254 67.3378 64.7844C66.7117 64.4322 65.0681 64.2561 62.407 64.2561H60.0003V72.8557H60.7047C62.8962 72.8557 64.2267 72.6893 64.6963 72.3567C65.1855 72.0241 65.5181 71.0555 65.6942 69.4511C65.7333 69.0401 65.841 68.8347 66.0171 68.8347C66.2323 68.8347 66.3399 69.0108 66.3399 69.363C66.3399 69.7152 66.3203 70.2337 66.2812 70.9185C66.2421 71.6034 66.2225 72.1219 66.2225 72.4741C66.2225 74.5677 66.2616 76.0059 66.3399 76.7886C66.3595 76.9842 66.3693 77.1505 66.3693 77.2875C66.3693 77.5419 66.2616 77.6691 66.0464 77.6691C65.9094 77.6691 65.8116 77.5908 65.7529 77.4343C65.7138 77.2582 65.6355 76.7103 65.5181 75.7907C65.3616 74.6362 64.8822 73.922 64.08 73.6481C63.7278 73.5307 62.8081 73.472 61.3211 73.472H60.0003V83.3336C64.305 83.3336 66.8291 83.2456 67.5726 83.0695C68.864 82.776 69.5978 81.5237 69.7739 79.3127C69.813 78.8235 69.9402 78.5789 70.1554 78.5789C70.3511 78.5789 70.4489 78.7844 70.4489 79.1953ZM90.8187 73.7949C90.8187 77.2386 89.6154 79.9192 87.2087 81.8368C85.4477 83.2456 83.0899 83.95 80.1353 83.95C80.0571 83.95 79.7049 83.9402 79.0787 83.9206C78.4722 83.901 77.5819 83.8913 76.4079 83.8913H74.9404L72.6217 83.9206C72.4848 83.9402 72.338 83.95 72.1815 83.95C71.8097 83.95 71.6238 83.8521 71.6238 83.6565C71.6238 83.4804 71.9369 83.3923 72.563 83.3923C73.3653 83.3923 73.8642 83.2456 74.0599 82.9521C74.1381 82.8151 74.1773 82.4433 74.1773 81.8368V66.0171C74.1773 65.0583 74.099 64.5007 73.9425 64.3441C73.8055 64.1876 73.3066 64.1093 72.4456 64.1093C71.9956 64.1093 71.7706 64.0017 71.7706 63.7865C71.7706 63.63 71.9369 63.5517 72.2695 63.5517C72.25 63.5517 72.4652 63.5615 72.9152 63.5811C73.3653 63.6006 73.8055 63.6104 74.236 63.6104H77.3764C80.8984 63.6104 83.3932 63.855 84.8607 64.3441C86.6412 64.9312 88.0794 66.0954 89.1751 67.8368C90.2709 69.5587 90.8187 71.5447 90.8187 73.7949ZM87.5315 73.6775C87.5315 70.4294 86.8956 68.052 85.6238 66.5454C84.3519 65.0192 82.3659 64.2561 79.6657 64.2561C78.3548 64.2561 77.5623 64.3931 77.2884 64.667C77.171 64.804 77.1123 65.2736 77.1123 66.0758V81.69C77.1123 82.2379 77.1221 82.5705 77.1416 82.6879C77.1808 82.8053 77.2688 82.9031 77.4058 82.9814C77.8754 83.2162 78.8635 83.3336 80.3701 83.3336C82.4833 83.3336 84.1856 82.5901 85.477 81.103C86.8467 79.5377 87.5315 77.0625 87.5315 73.6775ZM112.871 78.6083C112.871 80.6041 111.962 82.0813 110.142 83.0401C109.261 83.5097 107.999 83.8032 106.356 83.9206C105.906 83.9402 104.575 83.95 102.364 83.95H98.7834C98.4507 83.95 98.2844 83.8619 98.2844 83.6858C98.2844 83.5097 98.5877 83.4217 99.1943 83.4217C99.8987 83.4217 100.31 83.3532 100.427 83.2162C100.564 83.0597 100.632 82.6096 100.632 81.8661V65.9877C100.632 65.1268 100.593 64.6279 100.515 64.4909C100.378 64.2561 99.8791 64.1289 99.0182 64.1093C98.4899 64.1093 98.2257 64.0115 98.2257 63.8158C98.2257 63.6397 98.4703 63.5517 98.9595 63.5517C98.979 63.5517 99.0964 63.5517 99.3117 63.5517C99.5269 63.5713 99.7226 63.5811 99.8987 63.5811L105.622 63.6397C107.735 63.6593 109.31 64.0115 110.347 64.6964C111.56 65.4986 112.167 66.6628 112.167 68.189C112.167 69.5195 111.668 70.6153 110.67 71.4762C109.672 72.3176 108.273 72.8459 106.473 73.0611V73.2372C108.254 73.3546 109.643 73.7264 110.641 74.3525C112.128 75.2917 112.871 76.7103 112.871 78.6083ZM108.938 68.4825C108.938 66.6041 108.508 65.3518 107.647 64.7257C107.197 64.3931 106.346 64.2267 105.094 64.2267C104.761 64.2267 104.242 64.2561 103.538 64.3148V72.8263H103.802L105.416 72.7676C106.532 72.7285 107.393 72.3371 107.999 71.5936C108.625 70.8305 108.938 69.7935 108.938 68.4825ZM109.79 78.2854C109.79 75.82 108.792 74.2938 106.796 73.7068C106.209 73.5307 105.123 73.4427 103.538 73.4427V82.189C103.538 82.7564 103.597 83.0792 103.714 83.1575C103.91 83.2945 104.458 83.363 105.358 83.363C106.708 83.363 107.784 82.9325 108.586 82.0716C109.388 81.2106 109.79 79.9486 109.79 78.2854ZM130.754 79.1953C130.754 79.2735 130.734 79.7529 130.695 80.6334C130.656 81.5139 130.637 82.3553 130.637 83.1575V84.1261C128.719 84.0282 124.923 83.9793 119.249 83.9793C118.564 83.9793 117.889 83.9891 117.224 84.0087C116.558 84.0087 116.108 84.0087 115.874 84.0087H115.58C115.208 84.0087 115.022 83.9206 115.022 83.7445C115.022 83.6271 115.081 83.5586 115.198 83.5391C115.257 83.5391 115.629 83.5097 116.314 83.451C116.823 83.4119 117.126 83.3043 117.224 83.1282C117.341 82.9521 117.4 82.4922 117.4 81.7487V65.254C117.4 64.6866 117.312 64.3539 117.136 64.2561C116.979 64.1387 116.451 64.08 115.551 64.08C115.238 64.08 115.081 63.9919 115.081 63.8158C115.081 63.6397 115.296 63.5517 115.727 63.5517L120.746 63.5811C120.922 63.5811 122.027 63.5713 124.062 63.5517C126.097 63.5517 127.467 63.5517 128.171 63.5517C128.758 63.5517 129.296 63.5126 129.785 63.4343C129.825 64.2757 129.913 65.4399 130.05 66.9269L130.167 68.189C130.187 68.2868 130.196 68.414 130.196 68.5705C130.196 68.7662 130.108 68.8641 129.932 68.8641C129.717 68.8641 129.56 68.6195 129.463 68.1303C129.091 66.3693 128.484 65.254 127.643 64.7844C127.017 64.4322 125.373 64.2561 122.712 64.2561H120.305V72.8557H121.01C123.201 72.8557 124.532 72.6893 125.001 72.3567C125.491 72.0241 125.823 71.0555 125.999 69.4511C126.038 69.0401 126.146 68.8347 126.322 68.8347C126.537 68.8347 126.645 69.0108 126.645 69.363C126.645 69.7152 126.625 70.2337 126.586 70.9185C126.547 71.6034 126.528 72.1219 126.528 72.4741C126.528 74.5677 126.567 76.0059 126.645 76.7886C126.665 76.9842 126.674 77.1505 126.674 77.2875C126.674 77.5419 126.567 77.6691 126.351 77.6691C126.215 77.6691 126.117 77.5908 126.058 77.4343C126.019 77.2582 125.941 76.7103 125.823 75.7907C125.667 74.6362 125.187 73.922 124.385 73.6481C124.033 73.5307 123.113 73.472 121.626 73.472H120.305V83.3336C124.61 83.3336 127.134 83.2456 127.878 83.0695C129.169 82.776 129.903 81.5237 130.079 79.3127C130.118 78.8235 130.245 78.5789 130.46 78.5789C130.656 78.5789 130.754 78.7844 130.754 79.1953ZM150.331 83.7445C150.331 83.9206 150.185 84.0087 149.891 84.0087C149.695 84.0087 149.519 83.9989 149.363 83.9793L145.635 83.9206L141.908 83.9793C141.771 83.9989 141.624 84.0087 141.468 84.0087C141.076 84.0087 140.881 83.9108 140.881 83.7152C140.881 83.4999 141.145 83.3923 141.673 83.3923C143.395 83.3727 144.256 83.1966 144.256 82.864C144.256 82.8444 144.236 82.7662 144.197 82.6292L143.962 81.8368L143.816 81.4259C143.64 80.8193 143.209 79.479 142.524 77.4049H136.243C135.069 80.5356 134.482 82.3357 134.482 82.8053C134.482 83.0792 134.6 83.2456 134.835 83.3043C134.893 83.3238 135.382 83.363 136.302 83.4217C136.869 83.4412 137.153 83.5391 137.153 83.7152C137.153 83.9108 136.899 84.0087 136.39 84.0087C135.49 84.0087 134.443 83.9695 133.25 83.8913C132.956 83.8717 132.653 83.8619 132.34 83.8619C132.027 83.8619 131.723 83.8815 131.43 83.9206C131.273 83.9402 131.146 83.95 131.048 83.95C130.774 83.95 130.638 83.8619 130.638 83.6858C130.638 83.5097 130.941 83.4119 131.547 83.3923C132.173 83.3727 132.624 83.2847 132.897 83.1282C133.171 82.9521 133.387 82.6292 133.543 82.1596C136.067 74.9591 138.122 69.1771 139.707 64.8138C139.746 64.579 139.824 64.3148 139.941 64.0213L140.088 63.493C140.147 63.2778 140.225 63.1702 140.323 63.1702C140.382 63.1702 140.431 63.2289 140.47 63.3463C140.724 64.1093 141.301 65.704 142.201 68.1303C142.906 70.0283 144.657 74.7928 147.455 82.4238C147.612 82.8542 147.807 83.1282 148.042 83.2456C148.296 83.363 148.805 83.4314 149.568 83.451C150.077 83.4706 150.331 83.5684 150.331 83.7445ZM142.348 76.7299C142.035 75.8494 141.517 74.3916 140.793 72.3567L139.384 68.3358C138.562 70.4881 137.574 73.2861 136.419 76.7299H142.348ZM168.281 63.8452C168.281 64.0213 168.105 64.1093 167.752 64.1093C167.694 64.1093 167.498 64.0996 167.165 64.08C167.068 64.0604 166.931 64.0506 166.755 64.0506C166.265 64.0506 165.972 64.1778 165.874 64.4322C165.835 64.5692 165.815 64.7942 165.815 65.1073V76.1135C165.815 78.9702 165.277 81.0541 164.201 82.3651C163.144 83.6565 161.432 84.3022 159.065 84.3022C156.228 84.3022 154.232 83.4999 153.077 81.8955C152.314 80.8193 151.933 79.0485 151.933 76.5831L151.903 64.8138C151.845 64.4616 151.61 64.2463 151.199 64.1681C151.082 64.1485 150.72 64.1387 150.113 64.1387C149.78 64.0996 149.614 64.0017 149.614 63.8452C149.614 63.6691 149.751 63.5811 150.025 63.5811H150.553C150.651 63.5811 150.876 63.5908 151.228 63.6104C151.541 63.6104 151.825 63.6104 152.08 63.6104L156.277 63.5811C156.374 63.5615 156.492 63.5517 156.629 63.5517C156.961 63.5517 157.128 63.6593 157.128 63.8746C157.128 64.0115 157.069 64.0898 156.952 64.1093C156.834 64.1289 156.443 64.1485 155.778 64.1681C155.504 64.1681 155.318 64.1876 155.22 64.2267C155.024 64.305 154.917 64.442 154.897 64.6376C154.878 64.7159 154.868 65.2736 154.868 66.3106V76.8179C154.868 79.4007 155.279 81.1617 156.1 82.1009C156.922 83.0401 158.145 83.5097 159.769 83.5097C162.743 83.5097 164.426 81.8172 164.817 78.4322C164.876 77.9234 164.905 75.7711 164.905 71.9752V70.3022L164.935 67.9542L164.905 65.9291C164.905 65.7334 164.905 65.5182 164.905 65.2833C164.925 65.029 164.935 64.9214 164.935 64.9605C164.935 64.53 164.729 64.2659 164.318 64.1681C164.182 64.1289 163.78 64.1093 163.115 64.1093C162.724 64.1093 162.528 64.0017 162.528 63.7865C162.528 63.6104 162.665 63.5223 162.939 63.5223C163.096 63.5223 163.223 63.5321 163.321 63.5517C163.555 63.5713 164.407 63.5811 165.874 63.5811C166.089 63.5811 166.334 63.5713 166.608 63.5517C166.862 63.5517 167.048 63.5517 167.165 63.5517H167.606C168.056 63.5517 168.281 63.6495 168.281 63.8452ZM185.304 68.776C185.304 69.0304 185.187 69.1576 184.952 69.1576C184.717 69.1576 184.551 68.9032 184.453 68.3945C184.414 68.0422 184.375 67.69 184.336 67.3378C184.199 66.6334 183.974 66.0367 183.661 65.5475C183.25 64.9018 182.575 64.4909 181.635 64.3148C181.029 64.1974 180.54 64.1485 180.168 64.1681C179.248 64.2072 178.691 64.2365 178.495 64.2561V81.9542C178.495 82.6586 178.681 83.0988 179.053 83.2749C179.248 83.3727 179.796 83.4314 180.696 83.451C180.931 83.4706 181.048 83.5586 181.048 83.7152C181.048 83.8913 180.892 83.9793 180.579 83.9793C180.422 83.9793 180.285 83.9695 180.168 83.95C178.994 83.9108 178.162 83.8913 177.673 83.8913C177.027 83.8913 176.421 83.901 175.853 83.9206C175.286 83.9402 174.562 83.95 173.682 83.95C173.232 83.95 173.007 83.8717 173.007 83.7152C173.007 83.5391 173.427 83.4412 174.269 83.4217C174.875 83.4217 175.266 83.2945 175.443 83.0401C175.54 82.8836 175.589 82.4825 175.589 81.8368V64.2561C173.652 64.2757 172.449 64.3735 171.979 64.5496C170.747 64.9996 170.023 66.203 169.807 68.1596C169.749 68.7467 169.612 69.0402 169.396 69.0402C169.162 69.0402 169.044 68.8347 169.044 68.4238C169.044 68.2086 169.054 67.9933 169.074 67.7781L169.132 67.1031C169.191 66.203 169.279 65.0192 169.396 63.5517H170.717L176.705 63.6397C177.409 63.6593 178.505 63.6495 179.992 63.6104L184.864 63.5223C184.903 64.6181 185.03 66.2421 185.245 68.3945C185.245 68.4532 185.255 68.5314 185.275 68.6293C185.294 68.7075 185.304 68.7564 185.304 68.776ZM203.881 63.8158C203.881 63.9724 203.715 64.0506 203.382 64.0506C202.306 64.0702 201.641 64.2561 201.386 64.6083C201.151 64.8235 200.31 66.4867 198.862 69.5978C198.216 70.987 197.61 72.21 197.042 73.2666C196.651 73.9905 196.426 74.4895 196.367 74.7634C196.309 75.0178 196.279 75.5852 196.279 76.4657V82.0129C196.279 82.6586 196.358 83.0401 196.514 83.1575C196.69 83.2749 197.277 83.363 198.275 83.4217C198.803 83.4608 199.068 83.5586 199.068 83.7152C199.068 83.8717 198.931 83.95 198.657 83.95H198.304L194.195 83.8619C193.041 83.8619 192.092 83.8815 191.348 83.9206C191.231 83.9402 191.094 83.95 190.938 83.95C190.664 83.95 190.527 83.8619 190.527 83.6858C190.527 83.5097 190.752 83.4119 191.202 83.3923C192.278 83.3532 192.914 83.2553 193.109 83.0988C193.305 82.9423 193.403 82.4727 193.403 81.69V75.4972C193.207 75.0667 192.64 73.922 191.701 72.0632L188.766 66.2519C188.472 65.6845 188.12 65.0485 187.709 64.3441C187.494 64.1485 187.024 64.0506 186.3 64.0506C185.596 64.0506 185.244 63.943 185.244 63.7278C185.244 63.5713 185.4 63.493 185.713 63.493C186.124 63.493 186.946 63.5126 188.179 63.5517C188.883 63.5713 189.392 63.5811 189.705 63.5811L193.109 63.5517C193.246 63.5321 193.403 63.5223 193.579 63.5223C193.931 63.5223 194.107 63.6202 194.107 63.8158C194.107 63.9919 193.775 64.08 193.109 64.08C191.896 64.08 191.29 64.2952 191.29 64.7257C191.29 65.0583 191.906 66.3987 193.139 68.7467L195.81 73.8242C196.299 72.9437 196.856 71.8578 197.483 70.5664L199.214 67.0737C199.86 65.8214 200.183 64.9996 200.183 64.6083C200.183 64.3539 200.016 64.2072 199.684 64.1681C198.999 64.0702 198.539 64.0311 198.304 64.0506C197.874 64.0702 197.659 63.9724 197.659 63.7572C197.659 63.6006 197.845 63.5223 198.216 63.5223L199.919 63.5517L200.887 63.5223C202.883 63.4636 203.881 63.5615 203.881 63.8158Z" fill="#1D1D1B"/>
<path d="M72.98 0.0600586L55.37 37.1501L61.66 48.6701L84.92 0.0600586H72.98Z" fill="black"/>
<path d="M46.5699 0.270059L55.1699 14.9401L63.3399 0.0600586L46.5699 0.270059Z" fill="black"/>
<path d="M94.35 0.0600586L76.75 38.4101L82.61 49.0901L105.67 0.0600586H94.35Z" fill="black"/>
<path d="M117.15 23.1101L117.09 22.4001C117.09 22.4001 129.54 19.5601 128.7 9.50005C127.86 -0.559947 113.93 0.0100559 113.93 0.0100559H103.93L104.28 0.500054C104.99 0.366764 105.72 0.366764 106.43 0.500054C111.77 1.57005 114.51 7.33006 114.3 11.8001C114.18 14.4701 114.52 20.7201 100.4 22.3201V23.0201C100.4 23.0201 116.11 21.4501 116.4 34.4501C116.69 47.4501 104.92 47.7001 100.14 47.7001V48.4001L115.67 48.2901C115.67 48.2901 131.74 49.1301 133.03 36.7401C134.32 24.3501 117.15 23.1101 117.15 23.1101Z" fill="black"/>
<path d="M136.43 48.11C137.573 48.11 138.5 47.1832 138.5 46.04C138.5 44.8967 137.573 43.97 136.43 43.97C135.287 43.97 134.36 44.8967 134.36 46.04C134.36 47.1832 135.287 48.11 136.43 48.11Z" fill="#B0D4D6"/>
</g>
<defs>
<clipPath id="clip0_55_3736">
<rect width="225.08" height="94.23" fill="white"/>
</clipPath>
</defs>
</svg>
