<svg width="58" height="58" viewBox="0 0 58 58" fill="none" xmlns="http://www.w3.org/2000/svg">
<path d="M56.7913 49.5417H1.20801L7.24967 35.0417H50.7497L56.7913 49.5417Z" stroke="#1E0F00" stroke-width="2" stroke-linejoin="round"/>
<path d="M9.66667 1.20825H48.3333C48.9743 1.20825 49.589 1.46286 50.0422 1.91608C50.4954 2.36929 50.75 2.98398 50.75 3.62492V35.0416H7.25V3.62492C7.25 2.98398 7.50461 2.36929 7.95783 1.91608C8.41104 1.46286 9.02573 1.20825 9.66667 1.20825V1.20825Z" stroke="#1E0F00" stroke-width="2" stroke-linejoin="round"/>
<path d="M44.7087 7.25H13.292V29H44.7087V7.25Z" stroke="#1E0F00" stroke-width="2" stroke-linejoin="round"/>
<path d="M1.20801 49.5417H56.7913V54.3751C56.7913 55.016 56.5367 55.6307 56.0835 56.0839C55.6303 56.5371 55.0156 56.7917 54.3747 56.7917H3.62467C2.98373 56.7917 2.36905 56.5371 1.91583 56.0839C1.46262 55.6307 1.20801 55.016 1.20801 54.3751V49.5417Z" stroke="#1E0F00" stroke-width="2" stroke-linejoin="round"/>
<path d="M27.792 39.875H30.2087" stroke="#1E0F00" stroke-width="2" stroke-linejoin="round"/>
<path d="M25.375 44.7083H27.7917" stroke="#1E0F00" stroke-width="2" stroke-linejoin="round"/>
<path d="M32.625 39.875H35.0417" stroke="#1E0F00" stroke-width="2" stroke-linejoin="round"/>
<path d="M30.208 44.7083H32.6247" stroke="#1E0F00" stroke-width="2" stroke-linejoin="round"/>
<path d="M37.458 39.875H39.8747" stroke="#1E0F00" stroke-width="2" stroke-linejoin="round"/>
<path d="M35.042 44.7083H37.4587" stroke="#1E0F00" stroke-width="2" stroke-linejoin="round"/>
<path d="M42.292 39.875H47.1253" stroke="#1E0F00" stroke-width="2" stroke-linejoin="round"/>
<path d="M39.875 44.7083H42.2917" stroke="#1E0F00" stroke-width="2" stroke-linejoin="round"/>
<path d="M44.708 44.7083H49.5413" stroke="#1E0F00" stroke-width="2" stroke-linejoin="round"/>
<path d="M22.958 39.875H25.3747" stroke="#1E0F00" stroke-width="2" stroke-linejoin="round"/>
<path d="M20.542 44.7083H22.9587" stroke="#1E0F00" stroke-width="2" stroke-linejoin="round"/>
<path d="M18.125 39.875H20.5417" stroke="#1E0F00" stroke-width="2" stroke-linejoin="round"/>
<path d="M15.708 44.7083H18.1247" stroke="#1E0F00" stroke-width="2" stroke-linejoin="round"/>
<path d="M10.875 39.875H15.7083" stroke="#1E0F00" stroke-width="2" stroke-linejoin="round"/>
<path d="M8.45801 44.7083H13.2913" stroke="#1E0F00" stroke-width="2" stroke-linejoin="round"/>
<path d="M39.8753 12.0833L27.792 24.1666" stroke="#1E0F00" stroke-width="2" stroke-linejoin="round"/>
<path d="M30.2083 12.0833L18.125 24.1666" stroke="#1E0F00" stroke-width="2" stroke-linejoin="round"/>
</svg>
