<svg width="214" height="130" viewBox="0 0 214 130" fill="none" xmlns="http://www.w3.org/2000/svg">
<g opacity="0.6">
<circle cx="2" cy="128" r="2" transform="rotate(-90 2 128)" fill="#B0D4D6"/>
<circle cx="2" cy="128" r="2" transform="rotate(-90 2 128)" fill="#B0D4D6"/>
<circle cx="16" cy="128" r="2" transform="rotate(-90 16 128)" fill="#B0D4D6"/>
<circle cx="16" cy="128" r="2" transform="rotate(-90 16 128)" fill="#B0D4D6"/>
<circle cx="30" cy="128" r="2" transform="rotate(-90 30 128)" fill="#B0D4D6"/>
<circle cx="30" cy="128" r="2" transform="rotate(-90 30 128)" fill="#B0D4D6"/>
<circle cx="44" cy="128" r="2" transform="rotate(-90 44 128)" fill="#B0D4D6"/>
<circle cx="44" cy="128" r="2" transform="rotate(-90 44 128)" fill="#B0D4D6"/>
<circle cx="58" cy="128" r="2" transform="rotate(-90 58 128)" fill="#B0D4D6"/>
<circle cx="58" cy="128" r="2" transform="rotate(-90 58 128)" fill="#B0D4D6"/>
<circle cx="72" cy="128" r="2" transform="rotate(-90 72 128)" fill="#B0D4D6"/>
<circle cx="72" cy="128" r="2" transform="rotate(-90 72 128)" fill="#B0D4D6"/>
<circle cx="86" cy="128" r="2" transform="rotate(-90 86 128)" fill="#B0D4D6"/>
<circle cx="86" cy="128" r="2" transform="rotate(-90 86 128)" fill="#B0D4D6"/>
<circle cx="100" cy="128" r="2" transform="rotate(-90 100 128)" fill="#B0D4D6"/>
<circle cx="100" cy="128" r="2" transform="rotate(-90 100 128)" fill="#B0D4D6"/>
<circle cx="2" cy="114" r="2" transform="rotate(-90 2 114)" fill="#B0D4D6"/>
<circle cx="2" cy="114" r="2" transform="rotate(-90 2 114)" fill="#B0D4D6"/>
<circle cx="16" cy="114" r="2" transform="rotate(-90 16 114)" fill="#B0D4D6"/>
<circle cx="16" cy="114" r="2" transform="rotate(-90 16 114)" fill="#B0D4D6"/>
<circle cx="30" cy="114" r="2" transform="rotate(-90 30 114)" fill="#B0D4D6"/>
<circle cx="30" cy="114" r="2" transform="rotate(-90 30 114)" fill="#B0D4D6"/>
<circle cx="44" cy="114" r="2" transform="rotate(-90 44 114)" fill="#B0D4D6"/>
<circle cx="44" cy="114" r="2" transform="rotate(-90 44 114)" fill="#B0D4D6"/>
<circle cx="58" cy="114" r="2" transform="rotate(-90 58 114)" fill="#B0D4D6"/>
<circle cx="58" cy="114" r="2" transform="rotate(-90 58 114)" fill="#B0D4D6"/>
<circle cx="72" cy="114" r="2" transform="rotate(-90 72 114)" fill="#B0D4D6"/>
<circle cx="72" cy="114" r="2" transform="rotate(-90 72 114)" fill="#B0D4D6"/>
<circle cx="86" cy="114" r="2" transform="rotate(-90 86 114)" fill="#B0D4D6"/>
<circle cx="86" cy="114" r="2" transform="rotate(-90 86 114)" fill="#B0D4D6"/>
<circle cx="100" cy="114" r="2" transform="rotate(-90 100 114)" fill="#B0D4D6"/>
<circle cx="100" cy="114" r="2" transform="rotate(-90 100 114)" fill="#B0D4D6"/>
<circle cx="2" cy="100" r="2" transform="rotate(-90 2 100)" fill="#B0D4D6"/>
<circle cx="2" cy="100" r="2" transform="rotate(-90 2 100)" fill="#B0D4D6"/>
<circle cx="16" cy="100" r="2" transform="rotate(-90 16 100)" fill="#B0D4D6"/>
<circle cx="16" cy="100" r="2" transform="rotate(-90 16 100)" fill="#B0D4D6"/>
<circle cx="30" cy="100" r="2" transform="rotate(-90 30 100)" fill="#B0D4D6"/>
<circle cx="30" cy="100" r="2" transform="rotate(-90 30 100)" fill="#B0D4D6"/>
<circle cx="44" cy="100" r="2" transform="rotate(-90 44 100)" fill="#B0D4D6"/>
<circle cx="44" cy="100" r="2" transform="rotate(-90 44 100)" fill="#B0D4D6"/>
<circle cx="58" cy="100" r="2" transform="rotate(-90 58 100)" fill="#B0D4D6"/>
<circle cx="58" cy="100" r="2" transform="rotate(-90 58 100)" fill="#B0D4D6"/>
<circle cx="72" cy="100" r="2" transform="rotate(-90 72 100)" fill="#B0D4D6"/>
<circle cx="72" cy="100" r="2" transform="rotate(-90 72 100)" fill="#B0D4D6"/>
<circle cx="86" cy="100" r="2" transform="rotate(-90 86 100)" fill="#B0D4D6"/>
<circle cx="86" cy="100" r="2" transform="rotate(-90 86 100)" fill="#B0D4D6"/>
<circle cx="100" cy="100" r="2" transform="rotate(-90 100 100)" fill="#B0D4D6"/>
<circle cx="100" cy="100" r="2" transform="rotate(-90 100 100)" fill="#B0D4D6"/>
<circle cx="2" cy="86" r="2" transform="rotate(-90 2 86)" fill="#B0D4D6"/>
<circle cx="2" cy="86" r="2" transform="rotate(-90 2 86)" fill="#B0D4D6"/>
<circle cx="16" cy="86" r="2" transform="rotate(-90 16 86)" fill="#B0D4D6"/>
<circle cx="16" cy="86" r="2" transform="rotate(-90 16 86)" fill="#B0D4D6"/>
<circle cx="30" cy="86" r="2" transform="rotate(-90 30 86)" fill="#B0D4D6"/>
<circle cx="30" cy="86" r="2" transform="rotate(-90 30 86)" fill="#B0D4D6"/>
<circle cx="44" cy="86" r="2" transform="rotate(-90 44 86)" fill="#B0D4D6"/>
<circle cx="44" cy="86" r="2" transform="rotate(-90 44 86)" fill="#B0D4D6"/>
<circle cx="58" cy="86" r="2" transform="rotate(-90 58 86)" fill="#B0D4D6"/>
<circle cx="58" cy="86" r="2" transform="rotate(-90 58 86)" fill="#B0D4D6"/>
<circle cx="72" cy="86" r="2" transform="rotate(-90 72 86)" fill="#B0D4D6"/>
<circle cx="72" cy="86" r="2" transform="rotate(-90 72 86)" fill="#B0D4D6"/>
<circle cx="86" cy="86" r="2" transform="rotate(-90 86 86)" fill="#B0D4D6"/>
<circle cx="86" cy="86" r="2" transform="rotate(-90 86 86)" fill="#B0D4D6"/>
<circle cx="100" cy="86" r="2" transform="rotate(-90 100 86)" fill="#B0D4D6"/>
<circle cx="100" cy="86" r="2" transform="rotate(-90 100 86)" fill="#B0D4D6"/>
<circle cx="2" cy="72" r="2" transform="rotate(-90 2 72)" fill="#B0D4D6"/>
<circle cx="2" cy="72" r="2" transform="rotate(-90 2 72)" fill="#B0D4D6"/>
<circle cx="16" cy="72" r="2" transform="rotate(-90 16 72)" fill="#B0D4D6"/>
<circle cx="16" cy="72" r="2" transform="rotate(-90 16 72)" fill="#B0D4D6"/>
<circle cx="30" cy="72" r="2" transform="rotate(-90 30 72)" fill="#B0D4D6"/>
<circle cx="30" cy="72" r="2" transform="rotate(-90 30 72)" fill="#B0D4D6"/>
<circle cx="44" cy="72" r="2" transform="rotate(-90 44 72)" fill="#B0D4D6"/>
<circle cx="44" cy="72" r="2" transform="rotate(-90 44 72)" fill="#B0D4D6"/>
<circle cx="58" cy="72" r="2" transform="rotate(-90 58 72)" fill="#B0D4D6"/>
<circle cx="58" cy="72" r="2" transform="rotate(-90 58 72)" fill="#B0D4D6"/>
<circle cx="72" cy="72" r="2" transform="rotate(-90 72 72)" fill="#B0D4D6"/>
<circle cx="72" cy="72" r="2" transform="rotate(-90 72 72)" fill="#B0D4D6"/>
<circle cx="86" cy="72" r="2" transform="rotate(-90 86 72)" fill="#B0D4D6"/>
<circle cx="86" cy="72" r="2" transform="rotate(-90 86 72)" fill="#B0D4D6"/>
<circle cx="100" cy="72" r="2" transform="rotate(-90 100 72)" fill="#B0D4D6"/>
<circle cx="100" cy="72" r="2" transform="rotate(-90 100 72)" fill="#B0D4D6"/>
<circle cx="2" cy="58" r="2" transform="rotate(-90 2 58)" fill="#B0D4D6"/>
<circle cx="2" cy="58" r="2" transform="rotate(-90 2 58)" fill="#B0D4D6"/>
<circle cx="16" cy="58" r="2" transform="rotate(-90 16 58)" fill="#B0D4D6"/>
<circle cx="16" cy="58" r="2" transform="rotate(-90 16 58)" fill="#B0D4D6"/>
<circle cx="30" cy="58" r="2" transform="rotate(-90 30 58)" fill="#B0D4D6"/>
<circle cx="30" cy="58" r="2" transform="rotate(-90 30 58)" fill="#B0D4D6"/>
<circle cx="44" cy="58" r="2" transform="rotate(-90 44 58)" fill="#B0D4D6"/>
<circle cx="44" cy="58" r="2" transform="rotate(-90 44 58)" fill="#B0D4D6"/>
<circle cx="58" cy="58" r="2" transform="rotate(-90 58 58)" fill="#B0D4D6"/>
<circle cx="58" cy="58" r="2" transform="rotate(-90 58 58)" fill="#B0D4D6"/>
<circle cx="72" cy="58" r="2" transform="rotate(-90 72 58)" fill="#B0D4D6"/>
<circle cx="72" cy="58" r="2" transform="rotate(-90 72 58)" fill="#B0D4D6"/>
<circle cx="86" cy="58" r="2" transform="rotate(-90 86 58)" fill="#B0D4D6"/>
<circle cx="86" cy="58" r="2" transform="rotate(-90 86 58)" fill="#B0D4D6"/>
<circle cx="100" cy="58" r="2" transform="rotate(-90 100 58)" fill="#B0D4D6"/>
<circle cx="100" cy="58" r="2" transform="rotate(-90 100 58)" fill="#B0D4D6"/>
<circle cx="2" cy="44" r="2" transform="rotate(-90 2 44)" fill="#B0D4D6"/>
<circle cx="2" cy="44" r="2" transform="rotate(-90 2 44)" fill="#B0D4D6"/>
<circle cx="16" cy="44" r="2" transform="rotate(-90 16 44)" fill="#B0D4D6"/>
<circle cx="16" cy="44" r="2" transform="rotate(-90 16 44)" fill="#B0D4D6"/>
<circle cx="30" cy="44" r="2" transform="rotate(-90 30 44)" fill="#B0D4D6"/>
<circle cx="30" cy="44" r="2" transform="rotate(-90 30 44)" fill="#B0D4D6"/>
<circle cx="44" cy="44" r="2" transform="rotate(-90 44 44)" fill="#B0D4D6"/>
<circle cx="44" cy="44" r="2" transform="rotate(-90 44 44)" fill="#B0D4D6"/>
<circle cx="58" cy="44" r="2" transform="rotate(-90 58 44)" fill="#B0D4D6"/>
<circle cx="58" cy="44" r="2" transform="rotate(-90 58 44)" fill="#B0D4D6"/>
<circle cx="72" cy="44" r="2" transform="rotate(-90 72 44)" fill="#B0D4D6"/>
<circle cx="72" cy="44" r="2" transform="rotate(-90 72 44)" fill="#B0D4D6"/>
<circle cx="86" cy="44" r="2" transform="rotate(-90 86 44)" fill="#B0D4D6"/>
<circle cx="86" cy="44" r="2" transform="rotate(-90 86 44)" fill="#B0D4D6"/>
<circle cx="100" cy="44" r="2" transform="rotate(-90 100 44)" fill="#B0D4D6"/>
<circle cx="100" cy="44" r="2" transform="rotate(-90 100 44)" fill="#B0D4D6"/>
<circle cx="2" cy="30" r="2" transform="rotate(-90 2 30)" fill="#B0D4D6"/>
<circle cx="2" cy="30" r="2" transform="rotate(-90 2 30)" fill="#B0D4D6"/>
<circle cx="16" cy="30" r="2" transform="rotate(-90 16 30)" fill="#B0D4D6"/>
<circle cx="16" cy="30" r="2" transform="rotate(-90 16 30)" fill="#B0D4D6"/>
<circle cx="30" cy="30" r="2" transform="rotate(-90 30 30)" fill="#B0D4D6"/>
<circle cx="30" cy="30" r="2" transform="rotate(-90 30 30)" fill="#B0D4D6"/>
<circle cx="44" cy="30" r="2" transform="rotate(-90 44 30)" fill="#B0D4D6"/>
<circle cx="44" cy="30" r="2" transform="rotate(-90 44 30)" fill="#B0D4D6"/>
<circle cx="58" cy="30" r="2" transform="rotate(-90 58 30)" fill="#B0D4D6"/>
<circle cx="58" cy="30" r="2" transform="rotate(-90 58 30)" fill="#B0D4D6"/>
<circle cx="72" cy="30" r="2" transform="rotate(-90 72 30)" fill="#B0D4D6"/>
<circle cx="72" cy="30" r="2" transform="rotate(-90 72 30)" fill="#B0D4D6"/>
<circle cx="86" cy="30" r="2" transform="rotate(-90 86 30)" fill="#B0D4D6"/>
<circle cx="86" cy="30" r="2" transform="rotate(-90 86 30)" fill="#B0D4D6"/>
<circle cx="100" cy="30" r="2" transform="rotate(-90 100 30)" fill="#B0D4D6"/>
<circle cx="100" cy="30" r="2" transform="rotate(-90 100 30)" fill="#B0D4D6"/>
<circle cx="2" cy="16" r="2" transform="rotate(-90 2 16)" fill="#B0D4D6"/>
<circle cx="2" cy="16" r="2" transform="rotate(-90 2 16)" fill="#B0D4D6"/>
<circle cx="16" cy="16" r="2" transform="rotate(-90 16 16)" fill="#B0D4D6"/>
<circle cx="16" cy="16" r="2" transform="rotate(-90 16 16)" fill="#B0D4D6"/>
<circle cx="30" cy="16" r="2" transform="rotate(-90 30 16)" fill="#B0D4D6"/>
<circle cx="30" cy="16" r="2" transform="rotate(-90 30 16)" fill="#B0D4D6"/>
<circle cx="44" cy="16" r="2" transform="rotate(-90 44 16)" fill="#B0D4D6"/>
<circle cx="44" cy="16" r="2" transform="rotate(-90 44 16)" fill="#B0D4D6"/>
<circle cx="58" cy="16" r="2" transform="rotate(-90 58 16)" fill="#B0D4D6"/>
<circle cx="58" cy="16" r="2" transform="rotate(-90 58 16)" fill="#B0D4D6"/>
<circle cx="72" cy="16" r="2" transform="rotate(-90 72 16)" fill="#B0D4D6"/>
<circle cx="72" cy="16" r="2" transform="rotate(-90 72 16)" fill="#B0D4D6"/>
<circle cx="86" cy="16" r="2" transform="rotate(-90 86 16)" fill="#B0D4D6"/>
<circle cx="86" cy="16" r="2" transform="rotate(-90 86 16)" fill="#B0D4D6"/>
<circle cx="100" cy="16" r="2" transform="rotate(-90 100 16)" fill="#B0D4D6"/>
<circle cx="100" cy="16" r="2" transform="rotate(-90 100 16)" fill="#B0D4D6"/>
<circle cx="2" cy="2" r="2" transform="rotate(-90 2 2)" fill="#B0D4D6"/>
<circle cx="2" cy="2" r="2" transform="rotate(-90 2 2)" fill="#B0D4D6"/>
<circle cx="16" cy="2" r="2" transform="rotate(-90 16 2)" fill="#B0D4D6"/>
<circle cx="16" cy="2" r="2" transform="rotate(-90 16 2)" fill="#B0D4D6"/>
<circle cx="30" cy="2" r="2" transform="rotate(-90 30 2)" fill="#B0D4D6"/>
<circle cx="30" cy="2" r="2" transform="rotate(-90 30 2)" fill="#B0D4D6"/>
<circle cx="44" cy="2" r="2" transform="rotate(-90 44 2)" fill="#B0D4D6"/>
<circle cx="44" cy="2" r="2" transform="rotate(-90 44 2)" fill="#B0D4D6"/>
<circle cx="58" cy="2" r="2" transform="rotate(-90 58 2)" fill="#B0D4D6"/>
<circle cx="58" cy="2" r="2" transform="rotate(-90 58 2)" fill="#B0D4D6"/>
<circle cx="72" cy="2" r="2" transform="rotate(-90 72 2)" fill="#B0D4D6"/>
<circle cx="72" cy="2" r="2" transform="rotate(-90 72 2)" fill="#B0D4D6"/>
<circle cx="86" cy="2" r="2" transform="rotate(-90 86 2)" fill="#B0D4D6"/>
<circle cx="86" cy="2" r="2" transform="rotate(-90 86 2)" fill="#B0D4D6"/>
<circle cx="100" cy="2" r="2" transform="rotate(-90 100 2)" fill="#B0D4D6"/>
<circle cx="100" cy="2" r="2" transform="rotate(-90 100 2)" fill="#B0D4D6"/>
</g>
<g opacity="0.6">
<circle cx="114" cy="128" r="2" transform="rotate(-90 114 128)" fill="#B0D4D6"/>
<circle cx="114" cy="128" r="2" transform="rotate(-90 114 128)" fill="#B0D4D6"/>
<circle cx="128" cy="128" r="2" transform="rotate(-90 128 128)" fill="#B0D4D6"/>
<circle cx="128" cy="128" r="2" transform="rotate(-90 128 128)" fill="#B0D4D6"/>
<circle cx="142" cy="128" r="2" transform="rotate(-90 142 128)" fill="#B0D4D6"/>
<circle cx="142" cy="128" r="2" transform="rotate(-90 142 128)" fill="#B0D4D6"/>
<circle cx="156" cy="128" r="2" transform="rotate(-90 156 128)" fill="#B0D4D6"/>
<circle cx="156" cy="128" r="2" transform="rotate(-90 156 128)" fill="#B0D4D6"/>
<circle cx="170" cy="128" r="2" transform="rotate(-90 170 128)" fill="#B0D4D6"/>
<circle cx="170" cy="128" r="2" transform="rotate(-90 170 128)" fill="#B0D4D6"/>
<circle cx="184" cy="128" r="2" transform="rotate(-90 184 128)" fill="#B0D4D6"/>
<circle cx="184" cy="128" r="2" transform="rotate(-90 184 128)" fill="#B0D4D6"/>
<circle cx="198" cy="128" r="2" transform="rotate(-90 198 128)" fill="#B0D4D6"/>
<circle cx="198" cy="128" r="2" transform="rotate(-90 198 128)" fill="#B0D4D6"/>
<circle cx="212" cy="128" r="2" transform="rotate(-90 212 128)" fill="#B0D4D6"/>
<circle cx="212" cy="128" r="2" transform="rotate(-90 212 128)" fill="#B0D4D6"/>
<circle cx="114" cy="114" r="2" transform="rotate(-90 114 114)" fill="#B0D4D6"/>
<circle cx="114" cy="114" r="2" transform="rotate(-90 114 114)" fill="#B0D4D6"/>
<circle cx="128" cy="114" r="2" transform="rotate(-90 128 114)" fill="#B0D4D6"/>
<circle cx="128" cy="114" r="2" transform="rotate(-90 128 114)" fill="#B0D4D6"/>
<circle cx="142" cy="114" r="2" transform="rotate(-90 142 114)" fill="#B0D4D6"/>
<circle cx="142" cy="114" r="2" transform="rotate(-90 142 114)" fill="#B0D4D6"/>
<circle cx="156" cy="114" r="2" transform="rotate(-90 156 114)" fill="#B0D4D6"/>
<circle cx="156" cy="114" r="2" transform="rotate(-90 156 114)" fill="#B0D4D6"/>
<circle cx="170" cy="114" r="2" transform="rotate(-90 170 114)" fill="#B0D4D6"/>
<circle cx="170" cy="114" r="2" transform="rotate(-90 170 114)" fill="#B0D4D6"/>
<circle cx="184" cy="114" r="2" transform="rotate(-90 184 114)" fill="#B0D4D6"/>
<circle cx="184" cy="114" r="2" transform="rotate(-90 184 114)" fill="#B0D4D6"/>
<circle cx="198" cy="114" r="2" transform="rotate(-90 198 114)" fill="#B0D4D6"/>
<circle cx="198" cy="114" r="2" transform="rotate(-90 198 114)" fill="#B0D4D6"/>
<circle cx="212" cy="114" r="2" transform="rotate(-90 212 114)" fill="#B0D4D6"/>
<circle cx="212" cy="114" r="2" transform="rotate(-90 212 114)" fill="#B0D4D6"/>
<circle cx="114" cy="100" r="2" transform="rotate(-90 114 100)" fill="#B0D4D6"/>
<circle cx="114" cy="100" r="2" transform="rotate(-90 114 100)" fill="#B0D4D6"/>
<circle cx="128" cy="100" r="2" transform="rotate(-90 128 100)" fill="#B0D4D6"/>
<circle cx="128" cy="100" r="2" transform="rotate(-90 128 100)" fill="#B0D4D6"/>
<circle cx="142" cy="100" r="2" transform="rotate(-90 142 100)" fill="#B0D4D6"/>
<circle cx="142" cy="100" r="2" transform="rotate(-90 142 100)" fill="#B0D4D6"/>
<circle cx="156" cy="100" r="2" transform="rotate(-90 156 100)" fill="#B0D4D6"/>
<circle cx="156" cy="100" r="2" transform="rotate(-90 156 100)" fill="#B0D4D6"/>
<circle cx="170" cy="100" r="2" transform="rotate(-90 170 100)" fill="#B0D4D6"/>
<circle cx="170" cy="100" r="2" transform="rotate(-90 170 100)" fill="#B0D4D6"/>
<circle cx="184" cy="100" r="2" transform="rotate(-90 184 100)" fill="#B0D4D6"/>
<circle cx="184" cy="100" r="2" transform="rotate(-90 184 100)" fill="#B0D4D6"/>
<circle cx="198" cy="100" r="2" transform="rotate(-90 198 100)" fill="#B0D4D6"/>
<circle cx="198" cy="100" r="2" transform="rotate(-90 198 100)" fill="#B0D4D6"/>
<circle cx="212" cy="100" r="2" transform="rotate(-90 212 100)" fill="#B0D4D6"/>
<circle cx="212" cy="100" r="2" transform="rotate(-90 212 100)" fill="#B0D4D6"/>
<circle cx="114" cy="86" r="2" transform="rotate(-90 114 86)" fill="#B0D4D6"/>
<circle cx="114" cy="86" r="2" transform="rotate(-90 114 86)" fill="#B0D4D6"/>
<circle cx="128" cy="86" r="2" transform="rotate(-90 128 86)" fill="#B0D4D6"/>
<circle cx="128" cy="86" r="2" transform="rotate(-90 128 86)" fill="#B0D4D6"/>
<circle cx="142" cy="86" r="2" transform="rotate(-90 142 86)" fill="#B0D4D6"/>
<circle cx="142" cy="86" r="2" transform="rotate(-90 142 86)" fill="#B0D4D6"/>
<circle cx="156" cy="86" r="2" transform="rotate(-90 156 86)" fill="#B0D4D6"/>
<circle cx="156" cy="86" r="2" transform="rotate(-90 156 86)" fill="#B0D4D6"/>
<circle cx="170" cy="86" r="2" transform="rotate(-90 170 86)" fill="#B0D4D6"/>
<circle cx="170" cy="86" r="2" transform="rotate(-90 170 86)" fill="#B0D4D6"/>
<circle cx="184" cy="86" r="2" transform="rotate(-90 184 86)" fill="#B0D4D6"/>
<circle cx="184" cy="86" r="2" transform="rotate(-90 184 86)" fill="#B0D4D6"/>
<circle cx="198" cy="86" r="2" transform="rotate(-90 198 86)" fill="#B0D4D6"/>
<circle cx="198" cy="86" r="2" transform="rotate(-90 198 86)" fill="#B0D4D6"/>
<circle cx="212" cy="86" r="2" transform="rotate(-90 212 86)" fill="#B0D4D6"/>
<circle cx="212" cy="86" r="2" transform="rotate(-90 212 86)" fill="#B0D4D6"/>
<circle cx="114" cy="72" r="2" transform="rotate(-90 114 72)" fill="#B0D4D6"/>
<circle cx="114" cy="72" r="2" transform="rotate(-90 114 72)" fill="#B0D4D6"/>
<circle cx="128" cy="72" r="2" transform="rotate(-90 128 72)" fill="#B0D4D6"/>
<circle cx="128" cy="72" r="2" transform="rotate(-90 128 72)" fill="#B0D4D6"/>
<circle cx="142" cy="72" r="2" transform="rotate(-90 142 72)" fill="#B0D4D6"/>
<circle cx="142" cy="72" r="2" transform="rotate(-90 142 72)" fill="#B0D4D6"/>
<circle cx="156" cy="72" r="2" transform="rotate(-90 156 72)" fill="#B0D4D6"/>
<circle cx="156" cy="72" r="2" transform="rotate(-90 156 72)" fill="#B0D4D6"/>
<circle cx="170" cy="72" r="2" transform="rotate(-90 170 72)" fill="#B0D4D6"/>
<circle cx="170" cy="72" r="2" transform="rotate(-90 170 72)" fill="#B0D4D6"/>
<circle cx="184" cy="72" r="2" transform="rotate(-90 184 72)" fill="#B0D4D6"/>
<circle cx="184" cy="72" r="2" transform="rotate(-90 184 72)" fill="#B0D4D6"/>
<circle cx="198" cy="72" r="2" transform="rotate(-90 198 72)" fill="#B0D4D6"/>
<circle cx="198" cy="72" r="2" transform="rotate(-90 198 72)" fill="#B0D4D6"/>
<circle cx="212" cy="72" r="2" transform="rotate(-90 212 72)" fill="#B0D4D6"/>
<circle cx="212" cy="72" r="2" transform="rotate(-90 212 72)" fill="#B0D4D6"/>
<circle cx="114" cy="58" r="2" transform="rotate(-90 114 58)" fill="#B0D4D6"/>
<circle cx="114" cy="58" r="2" transform="rotate(-90 114 58)" fill="#B0D4D6"/>
<circle cx="128" cy="58" r="2" transform="rotate(-90 128 58)" fill="#B0D4D6"/>
<circle cx="128" cy="58" r="2" transform="rotate(-90 128 58)" fill="#B0D4D6"/>
<circle cx="142" cy="58" r="2" transform="rotate(-90 142 58)" fill="#B0D4D6"/>
<circle cx="142" cy="58" r="2" transform="rotate(-90 142 58)" fill="#B0D4D6"/>
<circle cx="156" cy="58" r="2" transform="rotate(-90 156 58)" fill="#B0D4D6"/>
<circle cx="156" cy="58" r="2" transform="rotate(-90 156 58)" fill="#B0D4D6"/>
<circle cx="170" cy="58" r="2" transform="rotate(-90 170 58)" fill="#B0D4D6"/>
<circle cx="170" cy="58" r="2" transform="rotate(-90 170 58)" fill="#B0D4D6"/>
<circle cx="184" cy="58" r="2" transform="rotate(-90 184 58)" fill="#B0D4D6"/>
<circle cx="184" cy="58" r="2" transform="rotate(-90 184 58)" fill="#B0D4D6"/>
<circle cx="198" cy="58" r="2" transform="rotate(-90 198 58)" fill="#B0D4D6"/>
<circle cx="198" cy="58" r="2" transform="rotate(-90 198 58)" fill="#B0D4D6"/>
<circle cx="212" cy="58" r="2" transform="rotate(-90 212 58)" fill="#B0D4D6"/>
<circle cx="212" cy="58" r="2" transform="rotate(-90 212 58)" fill="#B0D4D6"/>
<circle cx="114" cy="44" r="2" transform="rotate(-90 114 44)" fill="#B0D4D6"/>
<circle cx="114" cy="44" r="2" transform="rotate(-90 114 44)" fill="#B0D4D6"/>
<circle cx="128" cy="44" r="2" transform="rotate(-90 128 44)" fill="#B0D4D6"/>
<circle cx="128" cy="44" r="2" transform="rotate(-90 128 44)" fill="#B0D4D6"/>
<circle cx="142" cy="44" r="2" transform="rotate(-90 142 44)" fill="#B0D4D6"/>
<circle cx="142" cy="44" r="2" transform="rotate(-90 142 44)" fill="#B0D4D6"/>
<circle cx="156" cy="44" r="2" transform="rotate(-90 156 44)" fill="#B0D4D6"/>
<circle cx="156" cy="44" r="2" transform="rotate(-90 156 44)" fill="#B0D4D6"/>
<circle cx="170" cy="44" r="2" transform="rotate(-90 170 44)" fill="#B0D4D6"/>
<circle cx="170" cy="44" r="2" transform="rotate(-90 170 44)" fill="#B0D4D6"/>
<circle cx="184" cy="44" r="2" transform="rotate(-90 184 44)" fill="#B0D4D6"/>
<circle cx="184" cy="44" r="2" transform="rotate(-90 184 44)" fill="#B0D4D6"/>
<circle cx="198" cy="44" r="2" transform="rotate(-90 198 44)" fill="#B0D4D6"/>
<circle cx="198" cy="44" r="2" transform="rotate(-90 198 44)" fill="#B0D4D6"/>
<circle cx="212" cy="44" r="2" transform="rotate(-90 212 44)" fill="#B0D4D6"/>
<circle cx="212" cy="44" r="2" transform="rotate(-90 212 44)" fill="#B0D4D6"/>
<circle cx="114" cy="30" r="2" transform="rotate(-90 114 30)" fill="#B0D4D6"/>
<circle cx="114" cy="30" r="2" transform="rotate(-90 114 30)" fill="#B0D4D6"/>
<circle cx="128" cy="30" r="2" transform="rotate(-90 128 30)" fill="#B0D4D6"/>
<circle cx="128" cy="30" r="2" transform="rotate(-90 128 30)" fill="#B0D4D6"/>
<circle cx="142" cy="30" r="2" transform="rotate(-90 142 30)" fill="#B0D4D6"/>
<circle cx="142" cy="30" r="2" transform="rotate(-90 142 30)" fill="#B0D4D6"/>
<circle cx="156" cy="30" r="2" transform="rotate(-90 156 30)" fill="#B0D4D6"/>
<circle cx="156" cy="30" r="2" transform="rotate(-90 156 30)" fill="#B0D4D6"/>
<circle cx="170" cy="30" r="2" transform="rotate(-90 170 30)" fill="#B0D4D6"/>
<circle cx="170" cy="30" r="2" transform="rotate(-90 170 30)" fill="#B0D4D6"/>
<circle cx="184" cy="30" r="2" transform="rotate(-90 184 30)" fill="#B0D4D6"/>
<circle cx="184" cy="30" r="2" transform="rotate(-90 184 30)" fill="#B0D4D6"/>
<circle cx="198" cy="30" r="2" transform="rotate(-90 198 30)" fill="#B0D4D6"/>
<circle cx="198" cy="30" r="2" transform="rotate(-90 198 30)" fill="#B0D4D6"/>
<circle cx="212" cy="30" r="2" transform="rotate(-90 212 30)" fill="#B0D4D6"/>
<circle cx="212" cy="30" r="2" transform="rotate(-90 212 30)" fill="#B0D4D6"/>
<circle cx="114" cy="16" r="2" transform="rotate(-90 114 16)" fill="#B0D4D6"/>
<circle cx="114" cy="16" r="2" transform="rotate(-90 114 16)" fill="#B0D4D6"/>
<circle cx="128" cy="16" r="2" transform="rotate(-90 128 16)" fill="#B0D4D6"/>
<circle cx="128" cy="16" r="2" transform="rotate(-90 128 16)" fill="#B0D4D6"/>
<circle cx="142" cy="16" r="2" transform="rotate(-90 142 16)" fill="#B0D4D6"/>
<circle cx="142" cy="16" r="2" transform="rotate(-90 142 16)" fill="#B0D4D6"/>
<circle cx="156" cy="16" r="2" transform="rotate(-90 156 16)" fill="#B0D4D6"/>
<circle cx="156" cy="16" r="2" transform="rotate(-90 156 16)" fill="#B0D4D6"/>
<circle cx="170" cy="16" r="2" transform="rotate(-90 170 16)" fill="#B0D4D6"/>
<circle cx="170" cy="16" r="2" transform="rotate(-90 170 16)" fill="#B0D4D6"/>
<circle cx="184" cy="16" r="2" transform="rotate(-90 184 16)" fill="#B0D4D6"/>
<circle cx="184" cy="16" r="2" transform="rotate(-90 184 16)" fill="#B0D4D6"/>
<circle cx="198" cy="16" r="2" transform="rotate(-90 198 16)" fill="#B0D4D6"/>
<circle cx="198" cy="16" r="2" transform="rotate(-90 198 16)" fill="#B0D4D6"/>
<circle cx="212" cy="16" r="2" transform="rotate(-90 212 16)" fill="#B0D4D6"/>
<circle cx="212" cy="16" r="2" transform="rotate(-90 212 16)" fill="#B0D4D6"/>
<circle cx="114" cy="2" r="2" transform="rotate(-90 114 2)" fill="#B0D4D6"/>
<circle cx="114" cy="2" r="2" transform="rotate(-90 114 2)" fill="#B0D4D6"/>
<circle cx="128" cy="2" r="2" transform="rotate(-90 128 2)" fill="#B0D4D6"/>
<circle cx="128" cy="2" r="2" transform="rotate(-90 128 2)" fill="#B0D4D6"/>
<circle cx="142" cy="2" r="2" transform="rotate(-90 142 2)" fill="#B0D4D6"/>
<circle cx="142" cy="2" r="2" transform="rotate(-90 142 2)" fill="#B0D4D6"/>
<circle cx="156" cy="2" r="2" transform="rotate(-90 156 2)" fill="#B0D4D6"/>
<circle cx="156" cy="2" r="2" transform="rotate(-90 156 2)" fill="#B0D4D6"/>
<circle cx="170" cy="2" r="2" transform="rotate(-90 170 2)" fill="#B0D4D6"/>
<circle cx="170" cy="2" r="2" transform="rotate(-90 170 2)" fill="#B0D4D6"/>
<circle cx="184" cy="2" r="2" transform="rotate(-90 184 2)" fill="#B0D4D6"/>
<circle cx="184" cy="2" r="2" transform="rotate(-90 184 2)" fill="#B0D4D6"/>
<circle cx="198" cy="2" r="2" transform="rotate(-90 198 2)" fill="#B0D4D6"/>
<circle cx="198" cy="2" r="2" transform="rotate(-90 198 2)" fill="#B0D4D6"/>
<circle cx="212" cy="2" r="2" transform="rotate(-90 212 2)" fill="#B0D4D6"/>
<circle cx="212" cy="2" r="2" transform="rotate(-90 212 2)" fill="#B0D4D6"/>
</g>
</svg>
