<svg width="124" height="99" viewBox="0 0 124 99" fill="none" xmlns="http://www.w3.org/2000/svg">
<circle cx="7.91363" cy="8.09191" r="5.73005" transform="rotate(57.4261 7.91363 8.09191)" fill="#F9F7F7" fill-opacity="0.62"/>
<circle cx="34.9136" cy="8.45434" r="5.73005" transform="rotate(57.4261 34.9136 8.45434)" fill="#F9F7F7" fill-opacity="0.62"/>
<circle cx="61.9136" cy="8.45434" r="5.73005" transform="rotate(57.4261 61.9136 8.45434)" fill="#F9F7F7" fill-opacity="0.62"/>
<circle cx="88.9136" cy="8.45434" r="5.73005" transform="rotate(57.4261 88.9136 8.45434)" fill="#F9F7F7" fill-opacity="0.62"/>
<circle cx="115.914" cy="8.45434" r="5.73005" transform="rotate(57.4261 115.914 8.45434)" fill="#F9F7F7" fill-opacity="0.62"/>
<circle cx="7.91363" cy="28.4543" r="5.73005" transform="rotate(57.4261 7.91363 28.4543)" fill="#F9F7F7" fill-opacity="0.62"/>
<circle cx="34.9136" cy="28.8166" r="5.73005" transform="rotate(57.4261 34.9136 28.8166)" fill="#F9F7F7" fill-opacity="0.62"/>
<circle cx="61.9136" cy="28.8166" r="5.73005" transform="rotate(57.4261 61.9136 28.8166)" fill="#F9F7F7" fill-opacity="0.62"/>
<circle cx="88.9136" cy="28.8166" r="5.73005" transform="rotate(57.4261 88.9136 28.8166)" fill="#F9F7F7" fill-opacity="0.62"/>
<circle cx="115.914" cy="28.8166" r="5.73005" transform="rotate(57.4261 115.914 28.8166)" fill="#F9F7F7" fill-opacity="0.62"/>
<circle cx="7.91363" cy="49.4543" r="5.73005" transform="rotate(57.4261 7.91363 49.4543)" fill="#F9F7F7" fill-opacity="0.62"/>
<circle cx="34.9136" cy="49.8166" r="5.73005" transform="rotate(57.4261 34.9136 49.8166)" fill="#F9F7F7" fill-opacity="0.62"/>
<circle cx="61.9136" cy="49.8166" r="5.73005" transform="rotate(57.4261 61.9136 49.8166)" fill="#F9F7F7" fill-opacity="0.62"/>
<circle cx="88.9136" cy="49.8166" r="5.73005" transform="rotate(57.4261 88.9136 49.8166)" fill="#F9F7F7" fill-opacity="0.62"/>
<circle cx="115.914" cy="49.8166" r="5.73005" transform="rotate(57.4261 115.914 49.8166)" fill="#F9F7F7" fill-opacity="0.62"/>
<circle cx="7.91363" cy="70.4543" r="5.73005" transform="rotate(57.4261 7.91363 70.4543)" fill="#F9F7F7" fill-opacity="0.62"/>
<circle cx="34.9136" cy="70.8166" r="5.73005" transform="rotate(57.4261 34.9136 70.8166)" fill="#F9F7F7" fill-opacity="0.62"/>
<circle cx="7.91363" cy="90.0919" r="5.73005" transform="rotate(57.4261 7.91363 90.0919)" fill="#F9F7F7" fill-opacity="0.62"/>
<circle cx="34.9136" cy="90.4542" r="5.73005" transform="rotate(57.4261 34.9136 90.4542)" fill="#F9F7F7" fill-opacity="0.62"/>
<circle cx="61.9136" cy="90.4542" r="5.73005" transform="rotate(57.4261 61.9136 90.4542)" fill="#F9F7F7" fill-opacity="0.62"/>
<circle cx="88.9136" cy="90.4542" r="5.73005" transform="rotate(57.4261 88.9136 90.4542)" fill="#F9F7F7" fill-opacity="0.62"/>
<circle cx="115.914" cy="90.4542" r="5.73005" transform="rotate(57.4261 115.914 90.4542)" fill="#F9F7F7" fill-opacity="0.62"/>
<circle cx="61.9136" cy="70.8166" r="5.73005" transform="rotate(57.4261 61.9136 70.8166)" fill="#F9F7F7" fill-opacity="0.62"/>
<circle cx="88.9136" cy="70.8166" r="5.73005" transform="rotate(57.4261 88.9136 70.8166)" fill="#F9F7F7" fill-opacity="0.62"/>
<circle cx="115.914" cy="70.8166" r="5.73005" transform="rotate(57.4261 115.914 70.8166)" fill="#F9F7F7" fill-opacity="0.62"/>
</svg>
