<svg width="20" height="19" viewBox="0 0 20 19" fill="none" xmlns="http://www.w3.org/2000/svg">
<path d="M18.5 16.1782V9.73178C18.5001 9.28328 18.4028 8.8395 18.2143 8.42761C18.0258 8.01573 17.7499 7.64441 17.4036 7.3364L10.9522 1.59674C10.6273 1.30755 10.1971 1.14642 9.75 1.14642C9.30286 1.14642 8.87267 1.30755 8.54775 1.59674L2.09638 7.3364C1.75007 7.64441 1.47421 8.01573 1.28569 8.42761C1.09716 8.8395 0.999949 9.28328 1 9.73178V16.1782C1 16.6151 1.18437 17.0342 1.51256 17.3431C1.84075 17.6521 2.28587 17.8256 2.75 17.8256H16.75C17.2141 17.8256 17.6592 17.6521 17.9874 17.3431C18.3156 17.0342 18.5 16.6151 18.5 16.1782Z" stroke="white" stroke-width="2" stroke-linecap="round" stroke-linejoin="round"/>
</svg>
