<svg width="20" height="20" viewBox="0 0 20 20" fill="none" xmlns="http://www.w3.org/2000/svg">
<path d="M18.3327 16.6666V10.145C18.3327 9.69125 18.2401 9.24229 18.0606 8.82559C17.8811 8.4089 17.6183 8.03325 17.2885 7.72165L11.1443 1.91498C10.8349 1.62242 10.4252 1.45941 9.99935 1.45941C9.5735 1.45941 9.1638 1.62242 8.85435 1.91498L2.71018 7.72165C2.38037 8.03325 2.11764 8.4089 1.9381 8.82559C1.75855 9.24229 1.66597 9.69125 1.66602 10.145V16.6666C1.66602 17.1087 1.84161 17.5326 2.15417 17.8452C2.46673 18.1577 2.89065 18.3333 3.33268 18.3333H16.666C17.108 18.3333 17.532 18.1577 17.8445 17.8452C18.1571 17.5326 18.3327 17.1087 18.3327 16.6666Z" stroke="#FCC5C0" stroke-width="2" stroke-linecap="round" stroke-linejoin="round"/>
</svg>
