<svg width="22" height="21" viewBox="0 0 22 21" fill="none" xmlns="http://www.w3.org/2000/svg">
<path d="M4.88889 2.33333C4.88889 3.57233 4.02111 4.63867 2.44322 4.63867C0.958222 4.63867 0 3.633 0 2.394C0 1.12233 0.928889 0 2.44444 0C3.96 0 4.85956 1.06167 4.88889 2.33333ZM0 21V5.83333H4.88889V21H0ZM7.33333 11.018C7.33333 9.2155 7.271 7.70933 7.20867 6.4085H11.6013L11.8189 8.41867H11.9118C12.5302 7.4725 14.0458 6.08533 16.5831 6.08533C19.6778 6.08533 22 8.06283 22 12.3177V21H17.1111V12.9955C17.1111 11.1358 16.3692 9.71717 14.6667 9.71717C13.3687 9.71717 12.7184 10.7205 12.3774 11.5477C12.2528 11.844 12.2222 12.257 12.2222 12.6712V21H7.33333V11.018Z" fill="#F8F8F8"/>
</svg>
