<svg width="15" height="14" viewBox="0 0 15 14" fill="none" xmlns="http://www.w3.org/2000/svg">
<path d="M3.33333 1.55556C3.33333 2.38156 2.74167 3.09244 1.66583 3.09244C0.653333 3.09244 0 2.422 0 1.596C0 0.748222 0.633333 0 1.66667 0C2.7 0 3.31333 0.707778 3.33333 1.55556ZM0 14V3.88889H3.33333V14H0ZM5 7.34533C5 6.14367 4.9575 5.13956 4.915 4.27233H7.91L8.05833 5.61244H8.12167C8.54333 4.98167 9.57667 4.05689 11.3067 4.05689C13.4167 4.05689 15 5.37522 15 8.21178V14H11.6667V8.66367C11.6667 7.42389 11.1608 6.47811 10 6.47811C9.115 6.47811 8.67167 7.147 8.43917 7.69844C8.35417 7.896 8.33333 8.17133 8.33333 8.44744V14H5V7.34533Z" fill="#B0D4D6"/>
</svg>
