<svg width="22" height="21" viewBox="0 0 22 21" fill="none" xmlns="http://www.w3.org/2000/svg">
<path d="M10.75 11.2237C12.1997 11.2237 13.375 10.1173 13.375 8.75253C13.375 7.38775 12.1997 6.28137 10.75 6.28137C9.30025 6.28137 8.125 7.38775 8.125 8.75253C8.125 10.1173 9.30025 11.2237 10.75 11.2237Z" stroke="white" stroke-width="1.66667" stroke-linecap="round" stroke-linejoin="round"/>
<path d="M10.75 2.16284C8.89348 2.16284 7.11301 2.85712 5.80025 4.09293C4.4875 5.32875 3.75 7.00488 3.75 8.75258C3.75 10.3111 4.10175 11.3308 5.0625 12.4593L10.75 18.6372L16.4375 12.4593C17.3983 11.3308 17.75 10.3111 17.75 8.75258C17.75 7.00488 17.0125 5.32875 15.6997 4.09293C14.387 2.85712 12.6065 2.16284 10.75 2.16284V2.16284Z" stroke="white" stroke-width="1.66667" stroke-linecap="round" stroke-linejoin="round"/>
</svg>
