<svg width="20" height="20" viewBox="0 0 20 20" fill="none" xmlns="http://www.w3.org/2000/svg">
<path d="M10 10.8333C11.3807 10.8333 12.5 9.71406 12.5 8.33334C12.5 6.95263 11.3807 5.83334 10 5.83334C8.61929 5.83334 7.5 6.95263 7.5 8.33334C7.5 9.71406 8.61929 10.8333 10 10.8333Z" stroke="#FCC5C0" stroke-width="1.66667" stroke-linecap="round" stroke-linejoin="round"/>
<path d="M10.0007 1.66666C8.23254 1.66666 6.53685 2.36904 5.28661 3.61928C4.03636 4.86952 3.33398 6.56521 3.33398 8.33332C3.33398 9.90999 3.66898 10.9417 4.58398 12.0833L10.0007 18.3333L15.4173 12.0833C16.3323 10.9417 16.6673 9.90999 16.6673 8.33332C16.6673 6.56521 15.9649 4.86952 14.7147 3.61928C13.4645 2.36904 11.7688 1.66666 10.0007 1.66666V1.66666Z" stroke="#FCC5C0" stroke-width="1.66667" stroke-linecap="round" stroke-linejoin="round"/>
</svg>
