<svg width="20" height="20" viewBox="0 0 20 20" fill="none" xmlns="http://www.w3.org/2000/svg">
<path d="M1.66602 5.00001C1.66602 4.55798 1.84161 4.13406 2.15417 3.8215C2.46673 3.50894 2.89065 3.33334 3.33268 3.33334H16.666C17.108 3.33334 17.532 3.50894 17.8445 3.8215C18.1571 4.13406 18.3327 4.55798 18.3327 5.00001V15C18.3327 15.442 18.1571 15.866 17.8445 16.1785C17.532 16.4911 17.108 16.6667 16.666 16.6667H3.33268C2.89065 16.6667 2.46673 16.4911 2.15417 16.1785C1.84161 15.866 1.66602 15.442 1.66602 15V5.00001Z" stroke="#FCC5C0" stroke-width="1.66667" stroke-linecap="round" stroke-linejoin="round"/>
<path d="M1.66602 6.66666L7.91685 11.6675C8.50792 12.1404 9.24236 12.3981 9.99935 12.3981C10.7563 12.3981 11.4908 12.1404 12.0818 11.6675L18.3327 6.66666" stroke="#FCC5C0" stroke-width="1.66667" stroke-linecap="round" stroke-linejoin="round"/>
</svg>
