<svg width="22" height="21" viewBox="0 0 22 21" fill="none" xmlns="http://www.w3.org/2000/svg">
<path d="M2 5.254C2 4.81708 2.18437 4.39804 2.51256 4.08909C2.84075 3.78014 3.28587 3.60657 3.75 3.60657H17.75C18.2141 3.60657 18.6592 3.78014 18.9874 4.08909C19.3156 4.39804 19.5 4.81708 19.5 5.254V15.1386C19.5 15.5755 19.3156 15.9946 18.9874 16.3035C18.6592 16.6125 18.2141 16.7861 17.75 16.7861H3.75C3.28587 16.7861 2.84075 16.6125 2.51256 16.3035C2.18437 15.9946 2 15.5755 2 15.1386V5.254Z" stroke="white" stroke-width="1.66667" stroke-linecap="round" stroke-linejoin="round"/>
<path d="M2 6.90137L8.56338 11.8445C9.184 12.312 9.95517 12.5667 10.75 12.5667C11.5448 12.5667 12.316 12.312 12.9366 11.8445L19.5 6.90137" stroke="white" stroke-width="1.66667" stroke-linecap="round" stroke-linejoin="round"/>
</svg>
