<svg width="44" height="55" viewBox="0 0 44 55" fill="none" xmlns="http://www.w3.org/2000/svg">
<path d="M22.2453 39.9993L14.6253 55L10.8759 47.6591L2.72949 48.9733L10.3491 33.973L22.2453 39.9993Z" fill="#B0D4D6"/>
<path d="M34.0586 33.973L41.2694 49.1735L33.1621 47.6398L29.2152 54.8765L22.0039 39.6764L34.0586 33.973Z" fill="#B0D4D6"/>
<path d="M41.3995 24.5205L44 21.9702L41.3995 19.4195L43.2504 16.284L40.0775 14.4922L41.0526 10.9849L37.5238 10.0746L37.5564 6.43487L33.9117 6.46746L32.9998 2.94346L29.4878 3.91718L27.694 0.74862L24.5537 2.59659L22 0L19.4458 2.59659L16.306 0.74862L14.5118 3.91718L10.9998 2.94346L10.0883 6.46746L6.44359 6.43487L6.47622 10.0746L2.94744 10.9849L3.92248 14.4922L0.749634 16.284L2.60011 19.4195L0 21.9702L2.60011 24.5205L0.749634 27.6565L3.92248 29.4479L2.94744 32.9551L6.47622 33.8658L6.44359 37.5056L10.0883 37.4726L10.9998 40.997L14.5118 40.0233L16.306 43.1919L19.4458 41.3435L22 43.9405L24.5537 41.3435L27.694 43.1919L29.4878 40.0233L32.9998 40.997L33.9117 37.4726L37.5564 37.5056L37.5238 33.8658L41.0526 32.9551L40.0775 29.4479L43.2504 27.6565L41.3995 24.5205Z" fill="#B0D4D6"/>
<path d="M22.0002 38.2414C17.9745 38.2359 14.0944 36.7375 11.1124 34.0368C8.13044 31.3361 6.25921 27.6256 5.86165 23.625C5.46409 19.6245 6.56856 15.6191 8.96083 12.3858C11.3531 9.15242 14.8626 6.92164 18.8087 6.12614C22.7547 5.33064 26.856 6.02711 30.3169 8.08047C33.7778 10.1338 36.3517 13.3977 37.5393 17.239C38.7269 21.0802 38.4436 25.2251 36.7442 28.8695C35.0449 32.514 32.0507 35.3982 28.3424 36.9628C26.336 37.8108 24.1788 38.2456 22.0002 38.2414V38.2414ZM22.0002 6.15918C13.2699 6.15918 6.16766 13.2518 6.16766 21.9702C6.16766 30.6887 13.2699 37.7813 22.0002 37.7813C30.7304 37.7813 37.8326 30.6883 37.8326 21.9702C37.8326 13.2522 30.73 6.15918 22.0002 6.15918V6.15918Z" fill="white"/>
</svg>
