<svg width="52" height="52" viewBox="0 0 52 52" fill="none" xmlns="http://www.w3.org/2000/svg">
<g clip-path="url(#clip0_235_650)">
<path d="M51.3453 24.7822C50.2774 23.8115 49.2399 22.8079 48.164 21.8434C47.1051 20.8986 46.8906 19.7729 47.3071 18.4593C47.7307 17.1235 48.1427 15.7815 48.5271 14.4314C48.8635 13.2443 48.4764 12.5942 47.2751 12.2896C45.9545 11.9566 44.6366 11.603 43.3 11.3448C41.7615 11.0491 40.9348 10.1603 40.6402 8.64105C40.3902 7.34263 40.044 6.06292 39.7228 4.77875C39.3918 3.45895 38.8329 3.11965 37.5373 3.48478C36.15 3.8784 34.7787 4.31833 33.3887 4.71284C32.1687 5.06105 31.1027 4.83396 30.2191 3.85168C29.2785 2.80974 28.3041 1.79452 27.3306 0.781075C26.3401 -0.249289 25.679 -0.258195 24.7037 0.748125C23.7284 1.75444 22.746 2.76878 21.8063 3.8125C20.8897 4.8304 19.7988 5.05392 18.5307 4.67633C17.2627 4.29874 15.9982 3.91937 14.7301 3.54623C13.1284 3.07335 12.6158 3.36099 12.2314 4.94795C11.9181 6.23212 11.5755 7.51095 11.3024 8.80402C11.0105 10.1835 10.1829 10.9778 8.83744 11.2815C7.70376 11.5374 6.57066 11.7954 5.43817 12.0554C3.25711 12.5595 3.02397 12.9825 3.6709 15.1536C4.10515 16.6106 4.63729 18.0408 4.84552 19.284C4.86955 20.3651 4.57856 21.0446 3.99214 21.5994C2.88871 22.6431 1.8013 23.7011 0.683632 24.7288C-0.127923 25.4742 -0.246275 26.224 0.486972 26.9863C1.31074 27.8583 2.18017 28.6859 3.0916 29.4656C4.84374 30.9359 5.15608 31.8167 4.51538 33.9852C4.17456 35.1384 3.80972 36.2854 3.4778 37.4396C3.08359 38.8075 3.41996 39.3988 4.77611 39.7319C6.13226 40.0649 7.4982 40.3998 8.86948 40.7008C10.1954 40.992 10.9598 41.8042 11.2596 43.1053C11.5755 44.4723 11.8888 45.8401 12.2287 47.2018C12.5749 48.591 13.0937 48.8778 14.5041 48.4735C15.8522 48.0879 17.1888 47.672 18.5369 47.2837C19.7534 46.9355 20.823 47.143 21.7093 48.1262C22.6775 49.1996 23.6673 50.2537 24.6788 51.2885C25.6096 52.2458 26.2894 52.236 27.23 51.2698C28.2089 50.2626 29.1948 49.2563 30.1292 48.2072C31.0395 47.1831 32.1234 46.9337 33.3923 47.3113C34.7752 47.7236 36.1509 48.1698 37.5346 48.5643C38.7217 48.9036 39.3811 48.5136 39.6819 47.3176C40.0245 45.9568 40.3671 44.5943 40.6465 43.221C40.941 41.7864 41.7899 40.9947 43.2021 40.7026C44.496 40.4354 45.7783 40.1068 47.0606 39.7898C48.5511 39.4202 48.8501 38.9117 48.431 37.4681C48.0403 36.1198 47.6034 34.7858 47.2368 33.4321C46.9698 32.4303 46.952 31.4275 47.7707 30.6331C48.9542 29.4897 50.1502 28.3711 51.3569 27.2588C52.2173 26.4627 52.2156 25.5748 51.3453 24.7822Z" fill="#B0D4D6"/>
<path d="M18.5206 20.195C18.4121 20.1482 18.2966 20.12 18.1789 20.1112C18.0126 20.0953 17.8457 20.0879 17.6788 20.089C17.5064 20.0877 17.3342 20.0951 17.1626 20.1112C17.0423 20.1207 16.9241 20.1483 16.812 20.1932C16.7264 20.2255 16.6509 20.2798 16.5931 20.3508C16.5439 20.4152 16.5176 20.4942 16.5184 20.5752V25.7671C16.5184 26.159 16.5228 26.5766 16.5317 27.0139C16.5359 27.2442 16.5415 27.471 16.5486 27.6943C16.5219 27.6373 16.4961 27.5812 16.4694 27.526C16.3609 27.2968 16.2496 27.0641 16.1357 26.8278C16.0165 26.5802 15.8964 26.3406 15.7798 26.1153C15.6632 25.89 15.5333 25.638 15.4069 25.3913L13.2552 21.3491C13.1607 21.1499 13.0522 20.9576 12.9304 20.7738C12.8343 20.6267 12.714 20.4969 12.5745 20.39C12.4427 20.2947 12.2937 20.2257 12.1358 20.1869C11.947 20.1439 11.7537 20.1241 11.5601 20.1282H10.3498C10.1115 20.1223 9.8793 20.2037 9.69669 20.357C9.51338 20.5138 9.41994 20.7471 9.41994 21.0499V30.9973C9.41918 31.0737 9.44016 31.1488 9.48045 31.2137C9.53165 31.2878 9.60433 31.3444 9.68868 31.3758C9.79742 31.4173 9.91108 31.4446 10.0268 31.4568C10.1964 31.4764 10.367 31.4854 10.5376 31.4835C10.7112 31.4855 10.8848 31.4766 11.0573 31.4568C11.1738 31.4446 11.2883 31.4176 11.3981 31.3767C11.4843 31.3464 11.5595 31.2913 11.6143 31.2182C11.6585 31.1531 11.6818 31.076 11.6811 30.9973V25.2087C11.6811 24.7706 11.6757 24.3449 11.6642 23.9442C11.6588 23.7465 11.652 23.5479 11.6437 23.3484C11.7096 23.5016 11.7784 23.655 11.8502 23.8088C12.0157 24.165 12.1803 24.5025 12.3396 24.8107L15.0901 29.983C15.2334 30.2697 15.3651 30.5075 15.4808 30.691C15.5841 30.8594 15.7112 31.0121 15.8581 31.1443C15.9865 31.2571 16.1386 31.3399 16.303 31.3865C16.4821 31.432 16.6664 31.4535 16.8512 31.4506H17.8087C17.9292 31.4508 18.0491 31.4334 18.1646 31.3989C18.2827 31.3639 18.3915 31.3031 18.4832 31.2208C18.5744 31.1383 18.6469 31.0372 18.6959 30.9243C18.7498 30.7983 18.7765 30.6624 18.7742 30.5253V20.5717C18.7749 20.4952 18.7539 20.4202 18.7137 20.3553C18.6656 20.2847 18.5987 20.2292 18.5206 20.195V20.195Z" fill="white"/>
<path d="M27.6463 29.6953C27.617 29.6166 27.5665 29.5476 27.5003 29.4959C27.4398 29.4505 27.366 29.4261 27.2903 29.4264H23.4248V26.5401H26.6487C26.7223 26.5406 26.7942 26.5189 26.8552 26.4778C26.9225 26.4295 26.9745 26.3627 27.0047 26.2854C27.0431 26.1919 27.0677 26.0931 27.0777 25.9924C27.1073 25.7109 27.1073 25.4271 27.0777 25.1455C27.0679 25.0434 27.0433 24.9432 27.0047 24.8481C26.9744 24.7719 26.9243 24.7052 26.8596 24.6548C26.7986 24.6095 26.7247 24.5848 26.6487 24.5845H23.4248V22.1177H27.2556C27.3318 22.1185 27.406 22.093 27.4656 22.0455C27.5279 21.9931 27.5755 21.9252 27.6036 21.8487C27.6413 21.7524 27.6658 21.6515 27.6765 21.5486C27.6923 21.4088 27.6997 21.2681 27.6988 21.1274C27.7 20.981 27.6926 20.8347 27.6765 20.6892C27.6652 20.5857 27.641 20.484 27.6045 20.3864C27.577 20.307 27.5273 20.2371 27.4612 20.1852C27.4015 20.1418 27.3294 20.119 27.2556 20.1202H21.7385C21.5369 20.115 21.3404 20.1845 21.1868 20.3152C21.0319 20.4497 20.9536 20.6625 20.9536 20.9475V30.5966C20.9536 30.8816 21.0319 31.0944 21.1868 31.2289C21.3403 31.3597 21.5368 31.4292 21.7385 31.4239H27.2939C27.3696 31.4241 27.4433 31.3997 27.5039 31.3544C27.57 31.3027 27.6206 31.2337 27.6498 31.155C27.6876 31.0587 27.7121 30.9577 27.7228 30.8548C27.7525 30.5691 27.7525 30.2811 27.7228 29.9955C27.711 29.8924 27.6852 29.7915 27.6463 29.6953Z" fill="white"/>
<path d="M43.882 20.2404C43.7784 20.1483 43.6459 20.0954 43.5074 20.0908C43.3623 20.0756 43.1621 20.0685 42.9094 20.0685C42.6424 20.0685 42.4271 20.0756 42.2749 20.0908C42.1438 20.0988 42.0151 20.1289 41.894 20.1798C41.7964 20.221 41.7177 20.2973 41.6733 20.3936C41.6387 20.4756 41.6136 20.5614 41.5986 20.6492L39.7557 28.6552L37.782 20.6883C37.763 20.5799 37.7266 20.4753 37.6743 20.3784C37.6166 20.2833 37.5289 20.21 37.4251 20.17C37.2927 20.1213 37.1533 20.094 37.0122 20.089C36.8467 20.0774 36.6305 20.0712 36.3502 20.0712C36.0921 20.0712 35.8821 20.0783 35.7273 20.0934C35.5909 20.1026 35.4568 20.1326 35.3295 20.1825C35.2257 20.2222 35.1386 20.2964 35.083 20.3927C35.0356 20.4856 35.0018 20.5849 34.9825 20.6874L33.0782 28.6329L31.2459 20.6305C31.2338 20.5322 31.2074 20.4362 31.1676 20.3455C31.1208 20.2531 31.0397 20.1827 30.9416 20.1496C30.8154 20.1068 30.6833 20.0839 30.5501 20.0819C30.3917 20.073 30.1754 20.0685 29.9076 20.0685C29.6166 20.0685 29.3843 20.0756 29.2179 20.0908C29.0667 20.0928 28.9201 20.1434 28.7997 20.235C28.7498 20.2806 28.7113 20.3371 28.6872 20.4002C28.6631 20.4633 28.6541 20.5312 28.6609 20.5984C28.6747 20.77 28.7045 20.9399 28.7499 21.106L31.262 30.7613C31.291 30.8889 31.339 31.0114 31.4043 31.1247C31.4775 31.2354 31.5856 31.3185 31.7113 31.3607C31.8722 31.4154 32.04 31.4469 32.2097 31.4542C32.4108 31.4684 32.6795 31.4755 33.0105 31.4755C33.3238 31.4755 33.5809 31.4684 33.7758 31.4542C33.943 31.4463 34.1081 31.413 34.2652 31.3553C34.3876 31.3094 34.4921 31.2255 34.5633 31.1158C34.6287 31.0058 34.6742 30.8853 34.6977 30.7595L36.2701 24.1784L37.9297 30.756C37.9527 30.8855 37.9982 31.0099 38.0641 31.1238C38.1372 31.2345 38.2453 31.3176 38.3711 31.3598C38.5319 31.4145 38.6997 31.446 38.8694 31.4533C39.0705 31.4675 39.3366 31.4747 39.6605 31.4747C39.9506 31.4747 40.1944 31.4675 40.3866 31.4524C40.5541 31.4446 40.7199 31.4146 40.8796 31.3633C41.0086 31.3215 41.1219 31.2413 41.2044 31.1336C41.2803 31.0219 41.3343 30.8968 41.3637 30.7649L43.8998 21.13C43.9434 20.9594 43.9731 20.7854 43.9888 20.61C43.999 20.5443 43.9947 20.4772 43.9762 20.4134C43.9578 20.3495 43.9256 20.2905 43.882 20.2404V20.2404Z" fill="white"/>
</g>
<defs>
<clipPath id="clip0_235_650">
<rect width="52" height="52" fill="white"/>
</clipPath>
</defs>
</svg>
