<svg width="20" height="19" viewBox="0 0 20 19" fill="none" xmlns="http://www.w3.org/2000/svg">
<path d="M8.48495 5.04771L5.52483 1.8311C5.18358 1.46042 4.55795 1.46207 4.16158 1.83604L1.72733 4.13174C1.00283 4.8146 0.795453 5.8286 1.21458 6.64161C3.71849 11.5221 7.89962 15.4637 13.0805 17.8277C13.9432 18.2223 15.0195 18.027 15.744 17.3442L18.201 15.0271C18.5991 14.6523 18.6 14.06 18.2027 13.7388L14.7727 10.967C14.414 10.677 13.8566 10.7149 13.497 11.0543L12.3035 12.1795C12.2424 12.2397 12.1619 12.2795 12.0745 12.2926C11.9871 12.3057 11.8975 12.2914 11.8196 12.252C9.86872 11.1944 8.25045 9.66896 7.12958 7.83106C7.0876 7.75754 7.0724 7.67309 7.08631 7.59066C7.10022 7.50823 7.14247 7.43237 7.20658 7.37472L8.39658 6.25364C8.75708 5.91262 8.79645 5.38544 8.48495 5.04689V5.04771Z" stroke="white" stroke-width="1.66667" stroke-linecap="round" stroke-linejoin="round"/>
</svg>
