<svg width="20" height="20" viewBox="0 0 20 20" fill="none" xmlns="http://www.w3.org/2000/svg">
<path d="M8.79454 5.2L5.97538 1.94584C5.65038 1.57084 5.05454 1.5725 4.67704 1.95084L2.35871 4.27334C1.66871 4.96417 1.47121 5.99 1.87038 6.8125C4.25506 11.75 8.23708 15.7376 13.1712 18.1292C13.9929 18.5283 15.0179 18.3308 15.7079 17.64L18.0479 15.2958C18.427 14.9167 18.4279 14.3175 18.0495 13.9925L14.7829 11.1883C14.4412 10.895 13.9104 10.9333 13.5679 11.2767L12.4312 12.415C12.373 12.476 12.2964 12.5162 12.2132 12.5294C12.1299 12.5427 12.0446 12.5282 11.9704 12.4883C10.1124 11.4184 8.5712 9.8752 7.50371 8.01584C7.46373 7.94146 7.44926 7.85603 7.4625 7.77263C7.47575 7.68924 7.51599 7.6125 7.57704 7.55417L8.71038 6.42C9.05371 6.075 9.09121 5.54167 8.79454 5.19917V5.2Z" stroke="#FCC5C0" stroke-width="1.66667" stroke-linecap="round" stroke-linejoin="round"/>
</svg>
