<svg width="42" height="34" viewBox="0 0 42 34" fill="none" xmlns="http://www.w3.org/2000/svg">
<path d="M7.79001 27.57C7.53001 28.57 7.29001 29.5 7.07001 30.49C8.07001 30.22 8.99999 29.99 9.98999 29.78C10.25 28.78 10.53 27.89 10.83 26.98C9.80999 27.16 8.79001 27.35 7.79001 27.57ZM32.59 15.68L30.1 13.19C29.22 13.35 28.35 13.52 27.5 13.71L31.5 17.71C30.8884 18.6688 30.1815 19.5633 29.39 20.38L23.77 14.75C22.99 15.01 22.23 15.29 21.49 15.6L27.73 21.84C27.2695 22.1853 26.7887 22.5025 26.29 22.79C25.77 23.07 25.24 23.34 24.7 23.58L18.4 17.28C17.8612 17.6743 17.3531 18.1089 16.88 18.58L16.73 18.73L22.46 24.46C21.2378 24.8563 19.9962 25.1901 18.74 25.46L14.65 21.37C14.2468 22.0177 13.8764 22.6852 13.54 23.37L16.17 25.99C14.85 26.25 13.51 26.48 12.17 26.71C11.86 27.61 11.57 28.53 11.31 29.48C17.26 28.31 23.48 27.71 28.49 24.92C32.98 22.42 35.49 17.54 37.12 11.92C36.12 12.14 35.03 12.33 33.98 12.52C33.5769 13.5988 33.1128 14.6538 32.59 15.68ZM0 30.07L2.20001 32.27C2.52001 32.11 2.86001 31.98 3.20001 31.83L5.20001 33.83C5.38001 32.96 5.54999 32.1 5.73999 31.25L5.48001 30.98L5.82001 30.88C6.04001 29.86 6.28001 28.86 6.54001 27.88C4.28657 28.3689 2.09348 29.1033 0 30.07ZM34.4 11.23C35.4 11.05 36.4 10.85 37.45 10.64C37.71 9.67997 37.95 8.70997 38.17 7.72997C37.17 7.98997 36.23 8.21997 35.24 8.43997C34.98 9.3933 34.7 10.3233 34.4 11.23ZM35.57 7.16997C36.57 6.94997 37.51 6.69997 38.46 6.41997C38.4717 6.33902 38.4885 6.25888 38.51 6.17997L38.68 6.34997C39.47 6.11997 40.25 5.85997 41.01 5.55997L39.01 3.55997C39.09 3.08997 39.18 2.62997 39.27 2.16997L37.07 -0.0300293C36.64 2.40997 36.15 4.86997 35.57 7.16997Z" fill="#B0D4D6"/>
</svg>
